<?xml version="1.0" encoding="UTF-8"?>
<svg version="1.1" xmlns="http://www.w3.org/2000/svg" width="1162" height="352" style="background: transparent;">
<path d="M0 0 C1.09673505 -0.0055344 2.1934701 -0.01106879 3.32343954 -0.0167709 C6.96980419 -0.03029928 10.61547506 -0.01545009 14.26182556 -0.00050354 C16.88758636 -0.00428951 19.51334515 -0.00979184 22.13909912 -0.01687622 C28.5131566 -0.0307606 34.88701505 -0.02328847 41.26106293 -0.00820064 C48.69308281 0.00871743 56.12505392 0.00544195 63.55708712 0.00170528 C76.82231343 -0.0041644 90.08744463 0.00996369 103.35264587 0.03465271 C116.20782536 0.05857571 129.06287781 0.06565394 141.91807556 0.05516052 C155.93734747 0.04373731 169.95656071 0.0418382 183.97583193 0.05625862 C185.47220416 0.05778436 186.96857641 0.05930472 188.46494865 0.06081963 C189.569143 0.06195635 189.569143 0.06195635 190.69564431 0.06311603 C195.86930016 0.06784764 201.04292972 0.06601545 206.21658516 0.06175423 C213.18603984 0.05629773 220.15531616 0.06712346 227.12473869 0.08870888 C229.67967004 0.09426448 232.23461828 0.09475334 234.78955078 0.08975601 C238.28233861 0.08378193 241.77459403 0.0963498 245.26733398 0.11352539 C246.2734764 0.10751535 247.27961881 0.1015053 248.31625038 0.09531313 C257.3947159 0.17625069 265.25781538 1.88939444 272.57017517 7.50120544 C273.41580017 8.05808044 274.26142517 8.61495544 275.13267517 9.18870544 C281.1563932 14.90351486 284.14949016 22.8104206 284.75619376 31.01755786 C284.83002435 33.9334214 284.84155217 36.84329631 284.83087158 39.76008606 C284.83469713 40.87467559 284.83852268 41.98926513 284.84246415 43.13763011 C284.85276034 46.8622231 284.84880836 50.58666097 284.84483337 54.31126404 C284.84918171 56.98584502 284.85430103 59.66041473 284.86032104 62.33499146 C284.87304978 68.83974471 284.87486402 75.34445665 284.87252078 81.84922026 C284.8707354 87.13832685 284.87249197 92.42742093 284.87674522 97.71652603 C284.87734041 98.4702285 284.8779356 99.22393097 284.87854883 100.00047291 C284.87976062 101.53178433 284.88097475 103.06309574 284.8821912 104.59440716 C284.89305972 118.94494029 284.89090752 133.29544991 284.88480636 147.64598437 C284.87963791 160.76256522 284.89089195 173.87907178 284.90990458 186.99563794 C284.92929555 200.47699446 284.93753676 213.95831586 284.93378133 227.43968642 C284.93187118 235.00312916 284.93433863 242.56650869 284.94849586 250.12994003 C284.96042671 256.568877 284.96179552 263.00771184 284.9497057 269.44665025 C284.94382887 272.72895332 284.9443209 276.01103181 284.9547081 279.29332924 C284.96517558 282.85851087 284.95707416 286.42319367 284.94439697 289.98835754 C284.95177126 291.01600106 284.95914554 292.04364457 284.96674329 293.10242879 C284.88551586 303.98991467 282.34093899 312.67055135 274.57017517 320.50120544 C266.26245643 327.24851789 259.02180712 328.79971901 248.51383972 328.77536011 C247.39687548 328.78059679 246.27991125 328.78583346 245.12909961 328.79122883 C241.38448705 328.80623644 237.64001105 328.80693416 233.89537048 328.80760193 C231.21123178 328.8152229 228.52710454 328.82360155 225.8429718 328.83282471 C218.5495004 328.85564714 211.25605815 328.86359227 203.96255589 328.86865115 C199.40584188 328.87191124 194.8491363 328.87843559 190.29242706 328.88565254 C177.66829323 328.90521451 165.04416721 328.9216212 152.42001724 328.92452908 C151.20891854 328.92481043 151.20891854 328.92481043 149.97335319 328.92509747 C148.33666722 328.92546371 146.69998125 328.92582741 145.06329527 328.92618858 C144.25087814 328.92637139 143.43846101 328.9265542 142.60142517 328.92674255 C141.78801284 328.9269231 140.9746005 328.92710365 140.13653931 328.92728967 C126.95835559 328.93083082 113.78033533 328.95785123 100.60220829 328.99524044 C87.06215271 329.03334814 73.5221782 329.05268673 59.98206782 329.05298859 C52.38388578 329.05357259 44.78589877 329.06202747 37.18776703 329.09098625 C30.71762962 329.11553312 24.24775839 329.12276087 17.77758697 329.10773873 C14.47894882 329.10058319 11.18094364 329.10410494 7.88234329 329.12414932 C4.29925391 329.14459235 0.7175177 329.13406612 -2.86555481 329.11593628 C-3.89845351 329.12913625 -4.93135221 329.14233621 -5.99555087 329.15593618 C-15.16576382 329.0502327 -23.01394689 325.62716812 -29.82826233 319.44261169 C-35.08929707 313.06521105 -38.54871394 305.04570721 -38.56125259 296.77340508 C-38.56509374 295.82064088 -38.56893488 294.86787668 -38.57289243 293.88624084 C-38.57202595 292.84248452 -38.57115946 291.7987282 -38.57026672 290.7233429 C-38.57323785 289.61217106 -38.57620897 288.50099922 -38.57927012 287.35615551 C-38.58796697 283.61917892 -38.58946622 279.88223433 -38.59095764 276.14524841 C-38.59558516 273.47126107 -38.60058912 270.79727665 -38.60600281 268.12329102 C-38.61958198 260.84829674 -38.62561045 253.57330797 -38.63001347 246.29830313 C-38.63277709 241.75399884 -38.63701471 237.20969668 -38.64151764 232.66539383 C-38.6537107 220.07908448 -38.66400933 207.49277684 -38.66739273 194.90646172 C-38.6676123 194.10095995 -38.66783186 193.29545818 -38.66805808 192.46554727 C-38.66827636 191.65813346 -38.66849464 190.85071966 -38.66871953 190.01883876 C-38.66916299 188.38275266 -38.66960956 186.74666655 -38.6700592 185.11058044 C-38.67028063 184.29902772 -38.67050206 183.487475 -38.6707302 182.65132977 C-38.6746761 169.50863252 -38.69212356 156.3659908 -38.71541873 143.22331499 C-38.73915244 129.72400972 -38.75159553 116.22473228 -38.75276065 102.72540581 C-38.75367637 95.14848376 -38.75940267 87.571634 -38.77758026 79.9947319 C-38.79300866 73.54106585 -38.79808567 67.08749443 -38.78984216 60.63381343 C-38.78594504 57.3434321 -38.78846325 54.05328033 -38.80089951 50.76291466 C-38.81361436 47.18876998 -38.80774407 43.61511135 -38.7973175 40.04096985 C-38.80537391 39.01059786 -38.81343031 37.98022587 -38.82173085 36.91863048 C-38.75599025 27.25771857 -36.69892588 18.09614771 -30.42982483 10.50120544 C-22.02996187 2.23528108 -11.43096113 -0.10936665 0 0 Z " fill="#6F42C0" transform="translate(47.42982482910156,10.498794555664063)"/>
<path d="M0 0 C5.87095751 3.86949472 9.11882154 7.93914235 10.75 14.8125 C11.14560577 19.50552996 11.07648274 24.16870423 11 28.875 C10.98795434 30.28229991 10.97691292 31.68960872 10.96679688 33.09692383 C10.86035354 44.88527624 10.51104607 56.66943116 10.18136597 68.45318604 C9.85823316 80.09318313 9.6170676 91.7299296 9.57275391 103.37466431 C9.56606368 104.92446813 9.55596837 106.47426209 9.54199219 108.02401733 C8.68152269 130.35874553 8.68152269 130.35874553 17.51953125 149.66015625 C25.50699927 156.40282406 35.48378402 160.61414652 45.1875 164.25 C51.44502983 166.75970448 55.72440165 170.7613033 58.75 176.8125 C59.52539864 183.39231129 59.29188097 188.71703751 55.28515625 194.15234375 C52.05954005 197.64060555 49.13456248 199.52995513 44.34545898 200.09741211 C37.0816984 200.24731086 31.55909357 198.77061648 24.9375 195.875 C23.98262695 195.46894531 23.02775391 195.06289063 22.04394531 194.64453125 C2.5896732 186.12959148 -13.78045189 173.52048044 -22.15625 153.6640625 C-27.96908095 138.02754725 -27.46202413 119.63183737 -27.4375 103.1875 C-27.43689575 102.42967224 -27.4362915 101.67184448 -27.43566895 100.89105225 C-27.40010574 83.78645083 -27.03738438 66.68307921 -26.61221313 49.58428955 C-26.53576665 46.4938724 -26.46781426 43.40344791 -26.40707397 40.31268311 C-26.33361717 36.61603159 -26.24085545 32.92032882 -26.13406181 29.22449493 C-26.09725039 27.847981 -26.06680991 26.47127947 -26.04326057 25.09447479 C-25.90465439 17.30004264 -25.53603024 11.4384442 -21.25 4.8125 C-14.90425908 -1.21595388 -8.32781019 -3.04285372 0 0 Z " fill="#F6F4F4" transform="translate(213.25,71.1875)"/>
<path d="M0 0 C4.51133865 2.86296491 6.9362572 6.26519707 9.25 11.0625 C10.02696211 14.83888553 9.99346938 18.46695523 9.89941406 22.31103516 C9.89590942 23.94472549 9.89590942 23.94472549 9.89233398 25.61141968 C9.8780245 29.1922579 9.82163497 32.77115524 9.765625 36.3515625 C9.74933104 38.85865578 9.7360124 41.36576999 9.7255249 43.87289429 C9.69483285 49.794308 9.6388811 55.71511042 9.56903052 61.6361593 C9.43779499 72.83746787 9.36293126 84.03919195 9.29387665 95.24103928 C9.26621536 98.89850328 9.22297767 102.55552115 9.17730713 106.21279907 C7.82956999 128.23314447 7.82956999 128.23314447 15.25 148.0625 C23.33648208 155.1968424 32.60696515 159.5994741 42.5 163.625 C48.94372063 166.29336123 54.22566246 168.56175469 57.55859375 175.07421875 C59.32799749 180.16250409 58.64341934 184.75110219 57.125 189.8125 C54.4864633 194.38596362 51.56119373 196.7507414 46.9375 199.375 C38.87989548 201.43624767 32.51060853 199.48477622 25.125 196.125 C24.20920166 195.71749512 23.29340332 195.30999023 22.34985352 194.89013672 C6.13957282 187.52015167 -9.9783635 178.2418905 -18.75 162.0625 C-19.06880127 161.48556396 -19.38760254 160.90862793 -19.71606445 160.31420898 C-22.28013941 155.48019977 -23.81025433 150.84133706 -24.9375 145.5 C-25.10185547 144.80326172 -25.26621094 144.10652344 -25.43554688 143.38867188 C-28.21063756 130.70414806 -27.95729575 117.42510165 -27.9375 104.5 C-27.93656342 103.70053955 -27.93562683 102.9010791 -27.93466187 102.07739258 C-27.89131764 84.33145668 -27.57268522 66.58501613 -27.16714478 48.84402466 C-27.09515838 45.66385228 -27.03417237 42.48375814 -26.98251343 39.30319214 C-26.91991471 35.50141383 -26.83317902 31.70089493 -26.72893906 27.90003777 C-26.6939503 26.48487131 -26.66708298 25.06947691 -26.64899063 23.65399361 C-26.54117071 15.7126861 -26.3651818 9.10849517 -20.75 3.0625 C-14.5148147 -2.22870957 -7.64536523 -1.91134131 0 0 Z " fill="#F7F5F5" transform="translate(125.75,74.9375)"/>
<path d="M0 0 C4.61554481 3.17272697 7.48251101 5.96502202 10 11 C10.33 7.04 10.66 3.08 11 -1 C17.6 -1 24.2 -1 31 -1 C31 27.71 31 56.42 31 86 C24.4 86 17.8 86 11 86 C10.67 82.7 10.34 79.4 10 76 C9.34 76.70125 8.68 77.4025 8 78.125 C1.08665705 85.01870277 -5.19664152 89.23915582 -15.109375 89.32226562 C-15.98078125 89.31904297 -16.8521875 89.31582031 -17.75 89.3125 C-18.6059375 89.32861328 -19.461875 89.34472656 -20.34375 89.36132812 C-30.72781642 89.36919484 -38.52663714 86.24775191 -46 79 C-56.21727317 66.96632271 -59.25210307 50.35807441 -58 35 C-56.18110074 22.31694777 -51.56219179 10.68366301 -41.2734375 2.50390625 C-28.66891018 -5.83414017 -13.60869098 -6.83423281 0 0 Z " fill="#050505" transform="translate(630,157)"/>
<path d="M0 0 C9.43838309 6.98883205 13.20631661 15.82526644 16 27 C16 31.95 16 36.9 16 42 C-6.77 42 -29.54 42 -53 42 C-51.18347092 51.08264538 -49.62006226 58.08727604 -41.8125 63.5 C-35.2554647 66.99708549 -28.23091257 66.68243552 -21 66 C-18.03514978 64.94533935 -15.54377466 63.71483899 -12.85546875 62.09375 C-11 61 -11 61 -9 61 C-8.731875 60.443125 -8.46375 59.88625 -8.1875 59.3125 C-7.795625 58.549375 -7.40375 57.78625 -7 57 C-6.54625 56.113125 -6.0925 55.22625 -5.625 54.3125 C-4 52 -4 52 -2.12792969 51.25219727 C0.44105288 50.94772744 1.43516295 51.39901372 3.671875 52.65234375 C4.33574219 53.01650391 4.99960938 53.38066406 5.68359375 53.75585938 C6.36550781 54.14580078 7.04742188 54.53574219 7.75 54.9375 C8.79607422 55.51661133 8.79607422 55.51661133 9.86328125 56.10742188 C11.5816012 57.06073637 13.29163804 58.02895346 15 59 C15 59.66 15 60.32 15 61 C14.34 61 13.68 61 13 61 C12.7215625 61.99 12.7215625 61.99 12.4375 63 C7.81906497 72.63847311 -1.49251117 79.42140724 -11.1875 83.4375 C-22.5994313 86.86107939 -38.90549987 87.3170873 -49.85546875 82.2578125 C-61.2369247 75.58235017 -69.61425856 66.00328925 -73.55786133 53.18701172 C-74.53825614 48.33754914 -74.27146914 43.30417408 -74.3125 38.375 C-74.34150391 37.23675781 -74.37050781 36.09851563 -74.40039062 34.92578125 C-74.50170385 21.34980844 -69.56216371 12.83652793 -60.27734375 3.21484375 C-43.45052916 -12.33902033 -18.70591154 -11.0595064 0 0 Z " fill="#060606" transform="translate(1131,161)"/>
<path d="M0 0 C1.34689131 0.83262372 2.682473 1.68414866 4 2.5625 C4.86625 3.119375 5.7325 3.67625 6.625 4.25 C14.13794068 11.56523172 17.67284297 19.41609534 20 29.5625 C20 34.5125 20 39.4625 20 44.5625 C-2.77 44.5625 -25.54 44.5625 -49 44.5625 C-45.99957092 57.82868091 -45.99957092 57.82868091 -37 66.5625 C-29.84508095 70.03918602 -21.11899068 69.76367524 -13.59765625 67.5703125 C-6.08990124 64.21880522 -1.98869241 59.66911394 2 52.5625 C3.89709988 53.49743439 5.79262578 54.43556296 7.6875 55.375 C8.74324219 55.89707031 9.79898438 56.41914063 10.88671875 56.95703125 C13.66776696 58.3911728 16.33904567 59.91853378 19 61.5625 C16.0401571 70.72792261 6.84047056 79.05059081 -1.515625 83.44921875 C-13.74802646 88.9307194 -30.41905273 90.23094734 -43.3125 86 C-48.48375839 83.64190617 -52.83224405 80.3987299 -57 76.5625 C-57.9590625 75.68464844 -57.9590625 75.68464844 -58.9375 74.7890625 C-68.58484266 64.93380297 -70.30463287 51.81162265 -70.31469727 38.69995117 C-70.1270754 25.76514448 -66.00266896 16.01648442 -57.12109375 6.5625 C-41.97491114 -7.6351338 -18.17563758 -9.70165828 0 0 Z " fill="#050505" transform="translate(538,158.4375)"/>
<path d="M0 0 C6.6 0 13.2 0 20 0 C20 29.7 20 59.4 20 90 C20.66 90 21.32 90 22 90 C22 89.34 22 88.68 22 88 C23.33032227 86.74584961 23.33032227 86.74584961 25.25390625 85.21484375 C29.09848925 81.96368027 32.31939772 78.43215719 35.58984375 74.62890625 C53.10660062 54.70248135 53.10660062 54.70248135 63.26171875 53.30078125 C69.2763473 53.10515963 75.12523968 53.71227692 81 55 C76.93308205 60.03013536 72.55216709 64.26875648 67.70703125 68.54638672 C62.44647176 73.31448041 57.53417391 78.44544663 52.57373047 83.5222168 C51.19931575 84.92661274 49.81851548 86.32475066 48.4375 87.72265625 C47.63183594 88.54515869 46.82617188 89.36766113 45.99609375 90.21508789 C44 92 44 92 42 92 C42 92.99 42 93.98 42 95 C42.99 95.33 43.98 95.66 45 96 C46.40234375 97.390625 46.40234375 97.390625 47.9375 99.25 C51.19581941 103.09633883 54.56766161 106.80997057 58 110.5 C61.82678146 114.62607951 65.60835025 118.77792303 69.28515625 123.0390625 C72.06220387 126.21463859 74.9299354 129.30846782 77.7890625 132.41015625 C80.41076815 135.48116481 82.68985711 138.68879519 85 142 C60.83169898 144.08048502 60.83169898 144.08048502 55.03515625 139.57421875 C52.19305466 136.69731024 50.11180231 133.43542689 48 130 C46.84094599 128.58045756 45.65839668 127.17921806 44.4375 125.8125 C43.633125 124.884375 42.82875 123.95625 42 123 C41.01 122.505 41.01 122.505 40 122 C39.57589844 121.278125 39.15179687 120.55625 38.71484375 119.8125 C36.69454015 116.49901802 34.21795024 113.80119784 31.5625 111 C28.86689035 108.13341376 26.21964356 105.2779321 23.77734375 102.1875 C22.18515354 99.92084016 22.18515354 99.92084016 20 99 C20 113.19 20 127.38 20 142 C13.4 142 6.8 142 0 142 C0 95.14 0 48.28 0 0 Z " fill="#050505" transform="translate(966,101)"/>
<path d="M0 0 C4.96403959 3.75772459 7.86598094 8.91502098 9.81640625 14.75 C10.47445308 20.1901799 10.40197133 25.57337976 10.3046875 31.0390625 C10.29534315 32.59417576 10.28823472 34.14930391 10.2832489 35.70443726 C10.26430617 39.76537888 10.21531913 43.82540313 10.159729 47.88598633 C10.10825853 52.04235429 10.08567602 56.19887285 10.06054688 60.35546875 C10.00718435 68.48744374 9.91935666 76.61850149 9.81640625 84.75 C3.21640625 84.75 -3.38359375 84.75 -10.18359375 84.75 C-10.19817627 83.00460938 -10.21275879 81.25921875 -10.2277832 79.4609375 C-10.27960228 73.6693168 -10.34493278 67.87793147 -10.41930866 62.08656311 C-10.46387887 58.57807754 -10.50316337 55.06970451 -10.5300293 51.56103516 C-10.56121341 47.51956511 -10.6159962 43.47870463 -10.671875 39.4375 C-10.67826492 38.1882373 -10.68465485 36.93897461 -10.6912384 35.65185547 C-10.80249753 29.01581906 -11.18368719 23.724154 -14.18359375 17.75 C-21.28478279 11.9802839 -28.34752238 12.04468166 -37.18359375 12.75 C-42.53289352 14.27363956 -46.8191761 17.32819395 -50.18359375 21.75 C-53.28857346 29.1356794 -53.64965645 36.40580479 -53.6953125 44.3203125 C-53.7132637 45.48255341 -53.7312149 46.64479431 -53.74971008 47.84225464 C-53.8034808 51.51980056 -53.83760243 55.19721919 -53.87109375 58.875 C-53.9042961 61.38283009 -53.93878842 63.89064345 -53.97460938 66.3984375 C-54.05918833 72.51553265 -54.12615777 78.63259222 -54.18359375 84.75 C-60.78359375 84.75 -67.38359375 84.75 -74.18359375 84.75 C-74.18359375 56.04 -74.18359375 27.33 -74.18359375 -2.25 C-67.91359375 -2.25 -61.64359375 -2.25 -55.18359375 -2.25 C-54.85359375 1.71 -54.52359375 5.67 -54.18359375 9.75 C-53.39984375 8.71875 -52.61609375 7.6875 -51.80859375 6.625 C-39.27694853 -7.98043994 -16.14836452 -9.24414427 0 0 Z " fill="#040404" transform="translate(831.18359375,158.25)"/>
<path d="M0 0 C7.26 0 14.52 0 22 0 C22 38.28 22 76.56 22 116 C38.17 116 54.34 116 71 116 C71 122.27 71 128.54 71 135 C47.57 135 24.14 135 0 135 C0 90.45 0 45.9 0 0 Z " fill="#030303" transform="translate(387,108)"/>
<path d="M0 0 C6.6 0 13.2 0 20 0 C20 47.19 20 94.38 20 143 C13.4 143 6.8 143 0 143 C0 95.81 0 48.62 0 0 Z " fill="#070707" transform="translate(869,100)"/>
<path d="M0 0 C-0.44602291 6.69034366 -3.07345542 12.02812122 -6 18 C-7.134375 17.505 -8.26875 17.01 -9.4375 16.5 C-15.27540072 14.33016079 -20.43140249 14.07918202 -26.3125 16.1875 C-32.99089297 20.69153247 -34.45376964 26.41302783 -36 34 C-36.4184065 38.22583328 -36.48711874 42.4234098 -36.51171875 46.66796875 C-36.52966995 47.82879471 -36.54762115 48.98962067 -36.56611633 50.18562317 C-36.61981773 53.85287971 -36.65398601 57.52000914 -36.6875 61.1875 C-36.7207085 63.69077275 -36.75520137 66.1940288 -36.79101562 68.69726562 C-36.87552108 74.79808475 -36.94252304 80.89886881 -37 87 C-43.6 87 -50.2 87 -57 87 C-57 58.29 -57 29.58 -57 0 C-50.4 0 -43.8 0 -37 0 C-36.67 3.63 -36.34 7.26 -36 11 C-35.4740625 9.700625 -35.4740625 9.700625 -34.9375 8.375 C-27.22489163 -5.0598662 -13.26710375 -5.39678796 0 0 Z " fill="#030303" transform="translate(745,156)"/>
<path d="M0 0 C6.38931176 4.87389807 10.61813413 11.00496538 11.7409668 19.04907227 C11.87403429 21.29174628 11.90508917 23.50366318 11.875 25.75 C11.86815186 26.53793945 11.86130371 27.32587891 11.85424805 28.13769531 C11.63730436 36.0256704 9.55242128 41.57821094 5.3125 48.1875 C-0.01881957 53.17112482 -5.69585987 56.12436396 -13.0625 56.5 C-19.63633603 56.15547885 -25.42040183 53.91160806 -30.19140625 49.30078125 C-31.5536897 47.55624513 -32.57151895 45.85293373 -33.5625 43.875 C-33.87960937 43.25238281 -34.19671875 42.62976563 -34.5234375 41.98828125 C-38.19079094 33.15635208 -37.88476751 21.70589358 -34.875 12.75 C-32.20497875 6.48861214 -28.82989243 1.92834503 -22.5625 -1.125 C-15.65068129 -3.32492424 -6.34187531 -3.78329846 0 0 Z " fill="#F3F3F3" transform="translate(629.5625,173.125)"/>
<path d="M0 0 C6.61181186 4.05108965 12.89200321 9.44446617 14.90625 17.16796875 C16.15777819 26.79814885 14.04202883 33.50909734 8.71875 41.41796875 C1.80634301 48.1767667 -5.8625376 50.6152538 -15.3984375 50.515625 C-22.43458843 49.6080635 -28.66674322 45.60686279 -33.09375 40.16796875 C-38.14023932 32.97923753 -40.18922983 27.04645061 -39.09375 18.16796875 C-36.27326128 9.29792712 -30.68888778 3.96109171 -22.90625 -0.76953125 C-15.62647304 -2.79832155 -7.03214624 -3.17340498 0 0 Z " fill="#F1F1F1" transform="translate(1143.09375,83.83203125)"/>
<path d="M0 0 C6.6 0 13.2 0 20 0 C20 28.71 20 57.42 20 87 C13.4 87 6.8 87 0 87 C0 58.29 0 29.58 0 0 Z " fill="#040404" transform="translate(918,156)"/>
<path d="M0 0 C2.30001541 2.61365388 3.02796894 4.13518322 3.75 7.625 C4.1625 8.73875 4.575 9.8525 5 11 C8.41334218 12.64236643 8.41334218 12.64236643 12 13 C12.66 12.67 13.32 12.34 14 12 C14.33 14.31 14.66 16.62 15 19 C15.99 19 16.98 19 18 19 C18.33 20.98 18.66 22.96 19 25 C20.32 25.33 21.64 25.66 23 26 C23 26.99 23 27.98 23 29 C23.598125 28.67 24.19625 28.34 24.8125 28 C28.9266036 26.11926692 31.94201474 27.5571608 36 29 C36.495 31.97 36.495 31.97 37 35 C38.32 35 39.64 35 41 35 C41 35.99 41 36.98 41 38 C41.928125 37.95875 42.85625 37.9175 43.8125 37.875 C47 38 47 38 50 40 C52.13133244 40.45016409 54.28108864 40.81659157 56.4375 41.125 C57.57058594 41.29257813 58.70367187 41.46015625 59.87109375 41.6328125 C63.95006347 42.11149309 67.56285307 42.01991383 71.5625 41.1875 C72.32691406 41.03667969 73.09132813 40.88585937 73.87890625 40.73046875 C76.27691004 39.90463688 77.28309725 38.81643335 79 37 C79.66 37 80.32 37 81 37 C81.33 36.01 81.66 35.02 82 34 C82.54999899 40.64887667 82.5990184 45.82702796 78.53515625 51.33984375 C75.30954005 54.82810555 72.38456248 56.71745513 67.59545898 57.28491211 C60.3316984 57.43481086 54.80909357 55.95811648 48.1875 53.0625 C47.23262695 52.65644531 46.27775391 52.25039063 45.29394531 51.83203125 C27.22972701 43.92550409 9.68391119 31.7889277 2 13 C0.78531174 9.3793848 -0.35872399 5.76913247 -1 2 C-0.67 1.34 -0.34 0.68 0 0 Z " fill="#BCB7B4" transform="translate(190,214)"/>
<path d="M0 0 C2.57005181 2.57005181 2.57173288 4.25139178 3.125 7.8125 C3.29257813 8.85019531 3.46015625 9.88789063 3.6328125 10.95703125 C3.96131681 13.67942337 4.07084083 16.26250781 4 19 C4.66 19 5.32 19 6 19 C6.33 18.01 6.66 17.02 7 16 C7.74926071 19.66305234 8.2380014 22.42355152 7 26 C7.61875 26.04125 8.2375 26.0825 8.875 26.125 C11 27 11 27 12.1875 29.8125 C12.65188813 31.63433037 13.08800773 33.46518374 13.4375 35.3125 C13.623125 35.869375 13.80875 36.42625 14 37 C14.99 37.33 15.98 37.66 17 38 C17 38.66 17 39.32 17 40 C17.5775 40.28875 18.155 40.5775 18.75 40.875 C20.83333333 41.91666667 22.91666667 42.95833333 25 44 C25 44.66 25 45.32 25 46 C25.66 46 26.32 46 27 46 C27 46.66 27 47.32 27 48 C28.27875 48.268125 29.5575 48.53625 30.875 48.8125 C34.49675855 49.57190099 34.80051868 49.70077803 37 53 C39.56282742 53.72965366 39.56282742 53.72965366 42 54 C42 53.34 42 52.68 42 52 C42.66 52 43.32 52 44 52 C45.11328125 53.6796875 45.11328125 53.6796875 46.3125 55.875 C47.9317008 58.55946449 48.70072582 59.82350497 51.4375 61.4375 C54.28294255 62.06210934 57.11445255 62.59736547 60 63 C60 63.66 60 64.32 60 65 C61.72985242 64.88487847 63.45888751 64.75744323 65.1875 64.625 C66.63189453 64.52058594 66.63189453 64.52058594 68.10546875 64.4140625 C71.02293284 63.99671946 73.29537581 63.13301824 76 62 C78.8125 61.875 78.8125 61.875 81 62 C81.33 61.01 81.66 60.02 82 59 C82.66 59 83.32 59 84 59 C84 57.35 84 55.7 84 54 C84.33 54 84.66 54 85 54 C85.37031063 60.04840703 85.11427681 64.6019202 82 70 C78.43357753 73.86362434 74.41695827 76.62542913 69.12475586 77.20556641 C62.60710882 77.45752021 57.75648357 75.73803697 51.875 73.0625 C50.95920166 72.65499512 50.04340332 72.24749023 49.09985352 71.82763672 C32.88957282 64.45765167 16.7716365 55.1793905 8 39 C7.52288574 38.13677124 7.52288574 38.13677124 7.03613281 37.25610352 C4.4548057 32.39005025 2.89092639 27.69031627 1.75 22.3125 C1.58016602 21.53664551 1.41033203 20.76079102 1.23535156 19.96142578 C-0.14061025 13.23803896 -0.43653085 6.8632351 0 0 Z " fill="#ADA6AE" transform="translate(99,198)"/>
<path d="M0 0 C6.61181186 4.05108965 12.89200321 9.44446617 14.90625 17.16796875 C16.15777819 26.79814885 14.04202883 33.50909734 8.71875 41.41796875 C1.80634301 48.1767667 -5.8625376 50.6152538 -15.3984375 50.515625 C-22.43458843 49.6080635 -28.66674322 45.60686279 -33.09375 40.16796875 C-38.14023932 32.97923753 -40.18922983 27.04645061 -39.09375 18.16796875 C-36.27326128 9.29792712 -30.68888778 3.96109171 -22.90625 -0.76953125 C-15.62647304 -2.79832155 -7.03214624 -3.17340498 0 0 Z M-28.09375 10.16796875 C-32.70534596 15.54816404 -33.45897635 19.35881136 -33.3671875 26.31640625 C-32.77938383 32.44635884 -30.12578705 36.49824751 -25.59375 40.54296875 C-19.90356581 45.17270952 -15.31416459 45.83229045 -8.09375 45.16796875 C-1.07351426 43.89955406 2.86484102 39.85870951 6.90625 34.16796875 C9.97070406 29.21376802 9.46331218 23.7964671 8.90625 18.16796875 C7.32220548 11.76800363 3.56470276 8.71531834 -1.875 5.296875 C-11.33240825 0.48491904 -21.17012452 2.53422784 -28.09375 10.16796875 Z " fill="#0E0E0E" transform="translate(1143.09375,83.83203125)"/>
<path d="M0 0 C4.06029119 2.57027607 6.98857907 6.06700188 9.12890625 10.34765625 C9.12890625 12.32765625 9.12890625 14.30765625 9.12890625 16.34765625 C-6.38109375 16.34765625 -21.89109375 16.34765625 -37.87109375 16.34765625 C-36.69051864 8.08363051 -34.46118886 5.00538829 -28.12109375 -0.046875 C-19.90076758 -5.06056532 -8.44757881 -3.88282453 0 0 Z " fill="#F1F1F1" transform="translate(1116.87109375,172.65234375)"/>
<path d="M0 0 C4.45513266 4.45513266 5.6875 7.37020017 5.6875 13.6875 C-9.8225 13.6875 -25.3325 13.6875 -41.3125 13.6875 C-39.70383948 5.64419739 -36.83376604 1.6277654 -30.41015625 -3.1484375 C-21.21998105 -8.24838575 -8.11956592 -6.15419422 0 0 Z " fill="#F3F3F3" transform="translate(531.3125,175.3125)"/>
<path d="M0 0 C4.3003125 -0.061875 4.3003125 -0.061875 8.6875 -0.125 C9.58170654 -0.14320801 10.47591309 -0.16141602 11.3972168 -0.18017578 C15.6614533 -0.20982506 19.20381879 -0.19205875 23 2 C25 5 25 5 24.8125 8.5 C23.73536896 13.13994911 23.73536896 13.13994911 21 15 C20.34 15 19.68 15 19 15 C19.3609375 15.75925781 19.721875 16.51851562 20.09375 17.30078125 C20.78984375 18.79158203 20.78984375 18.79158203 21.5 20.3125 C21.9640625 21.29863281 22.428125 22.28476563 22.90625 23.30078125 C24 26 24 26 24 29 C21.36 29 18.72 29 16 29 C15.16180842 27.37750059 14.3295884 25.75191503 13.5 24.125 C13.0359375 23.22007813 12.571875 22.31515625 12.09375 21.3828125 C11 19 11 19 11 17 C10.01 17 9.02 17 8 17 C8 20.96 8 24.92 8 29 C5.36 29 2.72 29 0 29 C0 19.43 0 9.86 0 0 Z " fill="#070707" transform="translate(1120,93)"/>
<path d="M0 0 C1.0950262 -0.00467997 2.1900524 -0.00935994 3.31826121 -0.01418173 C6.97072696 -0.02610387 10.62281558 -0.01668505 14.27528381 -0.00723267 C16.90074888 -0.01129961 19.52621224 -0.01664218 22.15167236 -0.02316284 C28.53265275 -0.03647363 34.91352702 -0.0336342 41.29451149 -0.02492492 C46.48300715 -0.0181377 51.67147317 -0.01723613 56.859972 -0.02049637 C57.96950726 -0.02118592 57.96950726 -0.02118592 59.10145738 -0.0218894 C60.60434227 -0.02284862 62.10722715 -0.02382126 63.61011202 -0.02480717 C77.68931282 -0.03335344 91.76845495 -0.02353923 105.84764612 -0.00740607 C117.91470058 0.00599364 129.98166843 0.00367041 142.04872131 -0.01016235 C156.07749546 -0.02623647 170.10621821 -0.03252662 184.13500029 -0.02332556 C185.63252707 -0.02236996 187.13005385 -0.02142685 188.62758064 -0.02049637 C189.73265995 -0.01980213 189.73265995 -0.01980213 190.8600641 -0.01909386 C196.03870989 -0.01650926 201.21732295 -0.02086359 206.39596367 -0.02793503 C213.37359005 -0.03725393 220.3510506 -0.03056771 227.32866096 -0.01325226 C229.88681899 -0.00929162 232.4449908 -0.01041418 235.00314331 -0.01704025 C238.50040812 -0.02526232 241.9971529 -0.01492536 245.49438477 0 C246.50189142 -0.00669217 247.50939807 -0.01338433 248.54743522 -0.02027929 C257.42174882 0.05296172 265.83042301 1.62223544 272.8106842 7.38095093 C274.1856842 9.63095093 274.1856842 9.63095093 274.8106842 11.38095093 C272.8306842 10.72095093 270.8506842 10.06095093 268.8106842 9.38095093 C269.1406842 8.39095093 269.4706842 7.40095093 269.8106842 6.38095093 C268.7278717 6.19532593 268.7278717 6.19532593 267.6231842 6.00595093 C264.8106842 5.38095093 264.8106842 5.38095093 262.80459213 4.36013412 C258.26747924 2.87623254 253.84033691 3.08637141 249.09565735 3.08901978 C248.00334328 3.08181624 246.91102922 3.07461271 245.78561473 3.06719089 C242.11849747 3.0454704 238.45148878 3.03794289 234.78431702 3.03036499 C232.15781759 3.01779488 229.53132208 3.0043823 226.90483093 2.9901886 C220.50630963 2.95729892 214.10779408 2.93513743 207.70921615 2.91682348 C202.50678283 2.90174362 197.30437676 2.88281456 192.10196686 2.86113739 C191.361446 2.85805556 190.62092514 2.85497374 189.85796426 2.85179852 C188.35354748 2.84552163 186.84913073 2.83923621 185.34471402 2.83294234 C171.23413471 2.77436952 157.12353532 2.72798709 143.01289901 2.6857377 C130.91419493 2.64922494 118.81556908 2.60218964 106.7169342 2.54745483 C92.66296619 2.4838784 78.60899672 2.42694128 64.55496097 2.38046622 C63.05486215 2.37548683 61.55476337 2.37049859 60.05466461 2.3655014 C58.94760431 2.36181806 58.94760431 2.36181806 57.81817915 2.35806032 C52.62607804 2.34032775 47.4340098 2.31786707 42.24193573 2.29355621 C35.9083435 2.26402536 29.57477505 2.24177917 23.24112657 2.22875199 C20.01164925 2.22192753 16.78229067 2.21080334 13.55285263 2.19299889 C10.046401 2.17423203 6.54014115 2.16802315 3.03364563 2.16494751 C2.02049766 2.15659512 1.00734969 2.14824273 -0.03649974 2.13963723 C-7.13308909 2.1525982 -13.4594722 3.13766973 -20.1893158 5.38095093 C-20.1893158 4.72095093 -20.1893158 4.06095093 -20.1893158 3.38095093 C-13.35386844 0.59163741 -7.33815202 -0.04863455 0 0 Z " fill="#6A4AAA" transform="translate(47.18931579589844,10.619049072265625)"/>
<path d="M0 0 C3.96349618 1.57612714 6.59715839 3.39573758 9 7 C9.66100598 11.04257341 9.91928345 15.20172043 8.01953125 18.91796875 C5.78408559 21.70367796 3.4389842 23.98853406 0 25 C-4.98245604 25.45295055 -8.05923481 25.1745053 -12 22 C-15.18737794 18.26307414 -15.46220075 14.88612959 -15.2890625 10.1484375 C-14.76056643 6.22042618 -12.9373092 4.00673951 -10.3125 1.1875 C-6.88695705 -0.5715626 -3.71767541 -0.63692018 0 0 Z " fill="#070707" transform="translate(931,106)"/>
<path d="M0 0 C0.33 0 0.66 0 1 0 C0.99815641 0.57369859 0.99631283 1.14739717 0.99441338 1.73848057 C0.95004823 15.7636655 0.91705358 29.78883979 0.89637566 43.81408024 C0.88610758 50.5968638 0.87213387 57.37960023 0.84912109 64.16235352 C0.82689101 70.71759803 0.81540484 77.27281214 0.81024551 83.82809258 C0.80657235 86.3193075 0.79940009 88.81051999 0.78853989 91.30171394 C0.53515975 112.3307723 0.53515975 112.3307723 4 133 C3.01 133 2.02 133 1 133 C0.67 131.35 0.34 129.7 0 128 C-0.99 127.67 -1.98 127.34 -3 127 C-2.98259766 125.46279297 -2.98259766 125.46279297 -2.96484375 123.89453125 C-2.95545978 122.533856 -2.94636023 121.17317876 -2.9375 119.8125 C-2.92912109 119.13896484 -2.92074219 118.46542969 -2.91210938 117.77148438 C-2.89386332 114.03104372 -3.20724416 110.64667686 -4 107 C-3.5625 104.6875 -3.5625 104.6875 -3 103 C-3.33 103 -3.66 103 -4 103 C-4 83.2 -4 63.4 -4 43 C-2.515 42.505 -2.515 42.505 -1 42 C-1.66 41.67 -2.32 41.34 -3 41 C-3.02478935 36.39184965 -3.0429023 31.78373847 -3.05493164 27.17553711 C-3.05994856 25.60912398 -3.06676362 24.0427155 -3.07543945 22.47631836 C-3.08762094 20.21987761 -3.09325481 17.96349898 -3.09765625 15.70703125 C-3.10281754 15.01100296 -3.10797882 14.31497467 -3.11329651 13.59785461 C-3.11371546 9.93529848 -2.87148095 6.56131142 -2 3 C-1.34 3 -0.68 3 0 3 C0 2.01 0 1.02 0 0 Z " fill="#CCCFE2" transform="translate(134,86)"/>
<path d="M0 0 C2.57005181 2.57005181 2.57173288 4.25139178 3.125 7.8125 C3.29257813 8.85019531 3.46015625 9.88789063 3.6328125 10.95703125 C3.96131681 13.67942337 4.07084083 16.26250781 4 19 C4.66 19 5.32 19 6 19 C6.33 18.01 6.66 17.02 7 16 C7.74926071 19.66305234 8.2380014 22.42355152 7 26 C7.61875 26.04125 8.2375 26.0825 8.875 26.125 C11 27 11 27 12.1875 29.8125 C12.65188813 31.63433037 13.08800773 33.46518374 13.4375 35.3125 C13.623125 35.869375 13.80875 36.42625 14 37 C14.99 37.33 15.98 37.66 17 38 C17 38.66 17 39.32 17 40 C17.5775 40.28875 18.155 40.5775 18.75 40.875 C20.83333333 41.91666667 22.91666667 42.95833333 25 44 C25 44.66 25 45.32 25 46 C25.66 46 26.32 46 27 46 C27 46.66 27 47.32 27 48 C28.27875 48.268125 29.5575 48.53625 30.875 48.8125 C34.49675855 49.57190099 34.80051868 49.70077803 37 53 C39.56282742 53.72965366 39.56282742 53.72965366 42 54 C42 53.34 42 52.68 42 52 C42.66 52 43.32 52 44 52 C45.11328125 53.6796875 45.11328125 53.6796875 46.3125 55.875 C47.9317008 58.55946449 48.70072582 59.82350497 51.4375 61.4375 C54.28294255 62.06210934 57.11445255 62.59736547 60 63 C60 63.66 60 64.32 60 65 C61.72985242 64.88487847 63.45888751 64.75744323 65.1875 64.625 C66.63189453 64.52058594 66.63189453 64.52058594 68.10546875 64.4140625 C71.02293284 63.99671946 73.29537581 63.13301824 76 62 C78.8125 61.875 78.8125 61.875 81 62 C81.33 61.01 81.66 60.02 82 59 C82.66 59 83.32 59 84 59 C84 57.35 84 55.7 84 54 C84.33 54 84.66 54 85 54 C85 56.97 85 59.94 85 63 C74.89756318 68.13402527 74.89756318 68.13402527 69.76953125 68.09765625 C68.96708984 68.09443359 68.16464844 68.09121094 67.33789062 68.08789062 C66.50451172 68.07951172 65.67113281 68.07113281 64.8125 68.0625 C63.96751953 68.05798828 63.12253906 68.05347656 62.25195312 68.04882812 C60.16793845 68.03705403 58.08396023 68.0191189 56 68 C55.67 67.34 55.34 66.68 55 66 C51.96035914 64.93455888 48.88348062 64.07421739 45.78515625 63.1953125 C42.58629975 61.82245123 42.30909101 61.06916075 41 58 C37.94091587 57.18415432 37.94091587 57.18415432 35 57 C35 56.34 35 55.68 35 55 C34.1646875 54.79375 33.329375 54.5875 32.46875 54.375 C27.3490943 52.34558693 23.71324824 48.89579243 19.56640625 45.34375 C15.58513148 42.00603308 15.58513148 42.00603308 10.78125 40.125 C7.07418181 38.62551174 6.37684043 36.82167623 4.82226562 33.25146484 C3.50827977 29.65360927 2.54447815 26.05731438 1.75 22.3125 C1.58016602 21.53664551 1.41033203 20.76079102 1.23535156 19.96142578 C-0.14061025 13.23803896 -0.43653085 6.8632351 0 0 Z " fill="#D0CDCB" transform="translate(99,198)"/>
<path d="M0 0 C0.99 0 1.98 0 3 0 C3.33 0.66 3.66 1.32 4 2 C6.9737344 3.09036928 7.88407501 3.03864166 11 2 C11 2.66 11 3.32 11 4 C11.66 4 12.32 4 13 4 C13 4.66 13 5.32 13 6 C12.01 6.495 12.01 6.495 11 7 C13.475 7.99 13.475 7.99 16 9 C16 9.66 16 10.32 16 11 C17.2684375 10.2575 17.2684375 10.2575 18.5625 9.5 C22.36938822 7.83881241 24.89131353 7.68394719 29 8 C29.66 8.33 30.32 8.66 31 9 C31 9.66 31 10.32 31 11 C33.85369619 11.22346404 36.70688498 11.42913552 39.5625 11.625 C40.76229492 11.72167969 40.76229492 11.72167969 41.98632812 11.8203125 C47.12298357 12.15576755 51.05517209 11.66459553 56 10 C58.32787927 9.63049535 60.66045145 9.28647533 63 9 C61.40333982 14.72136565 59.32836818 18.35310543 54.4375 21.8125 C45.53293265 24.88862326 37.53714587 22.71127286 29.1875 19.0625 C28.23697754 18.6607959 27.28645508 18.2590918 26.30712891 17.84521484 C18.28242413 14.34894032 11.08094187 10.1403922 4 5 C3.21882812 4.46117187 2.43765625 3.92234375 1.6328125 3.3671875 C1.09398437 2.91601562 0.55515625 2.46484375 0 2 C0 1.34 0 0.68 0 0 Z " fill="#AEA8AB" transform="translate(209,248)"/>
<path d="M0 0 C2.95630415 4.43445623 3.12725484 7.74015466 3.1328125 13.01953125 C3.13571289 14.86248779 3.13571289 14.86248779 3.13867188 16.74267578 C3.13452994 18.09928519 3.12995827 19.45589333 3.125 20.8125 C3.12411377 21.51260193 3.12322754 22.21270386 3.12231445 22.934021 C3.10426521 35.30226824 2.79675119 47.65502487 2.42880249 60.01702881 C1.80524855 81.34176553 1.90606628 102.66837379 2 124 C-3.55433887 118.44566113 -3.02045441 107.7673818 -3.0234375 100.4140625 C-3.01713811 97.92628839 -3.00097722 95.43965292 -2.96337891 92.95214844 C-2.89631147 86.8199068 -3.04286754 80.87139738 -5 75 C-4.505 74.505 -4.505 74.505 -4 74 C-3.95907063 71.66702567 -3.95758277 69.33294775 -4 67 C-3.34 67 -2.68 67 -2 67 C-2.01047363 66.43603516 -2.02094727 65.87207031 -2.03173828 65.29101562 C-2.07374478 62.69405719 -2.09946602 60.09717061 -2.125 57.5 C-2.15013672 56.1696875 -2.15013672 56.1696875 -2.17578125 54.8125 C-2.2172205 49.17676212 -1.60441286 44.40699768 0 39 C-0.33 39 -0.66 39 -1 39 C-0.98839844 38.15695313 -0.97679687 37.31390625 -0.96484375 36.4453125 C-0.95582031 35.34960938 -0.94679687 34.25390625 -0.9375 33.125 C-0.92589844 32.03445312 -0.91429687 30.94390625 -0.90234375 29.8203125 C-0.80255697 27.04822454 -0.80255697 27.04822454 -2 25 C-1.74922443 22.43459479 -1.44070666 19.9214349 -1.0625 17.375 C-0.96259766 16.66859375 -0.86269531 15.9621875 -0.75976562 15.234375 C-0.51208041 13.48878393 -0.25676129 11.74427916 0 10 C-0.33 10 -0.66 10 -1 10 C-1.042721 8.33388095 -1.04063832 6.66617115 -1 5 C-0.67 4.67 -0.34 4.34 0 4 C0 2.68 0 1.36 0 0 Z " fill="#C1BCE5" transform="translate(221,79)"/>
<path d="M0 0 C4.73414571 4.86564976 6.50379056 9.52089242 6.8125 16.3125 C6.62502343 22.47579234 4.61050388 26.95199612 0.25 31.3125 C-1.43608966 31.38455511 -3.12500659 31.39636068 -4.8125 31.375 C-5.73160156 31.36597656 -6.65070313 31.35695312 -7.59765625 31.34765625 C-8.30792969 31.33605469 -9.01820312 31.32445312 -9.75 31.3125 C-9.75 30.9825 -9.75 30.6525 -9.75 30.3125 C-7.11 30.3125 -4.47 30.3125 -1.75 30.3125 C-2.1109375 29.55324219 -2.471875 28.79398438 -2.84375 28.01171875 C-3.53984375 26.52091797 -3.53984375 26.52091797 -4.25 25 C-4.7140625 24.01386719 -5.178125 23.02773437 -5.65625 22.01171875 C-6.75 19.3125 -6.75 19.3125 -6.75 16.3125 C-5.904375 15.57 -5.05875 14.8275 -4.1875 14.0625 C-1.29792927 11.44813485 -1.29792927 11.44813485 -1.9375 7.5 C-2.205625 6.448125 -2.47375 5.39625 -2.75 4.3125 C-7.43848508 1.96348304 -11.9308183 1.88261395 -17.0625 1.6875 C-19.929375 1.56375 -22.79625 1.44 -25.75 1.3125 C-25.75 10.8825 -25.75 20.4525 -25.75 30.3125 C-26.08 30.3125 -26.41 30.3125 -26.75 30.3125 C-27.08 20.7425 -27.41 11.1725 -27.75 1.3125 C-28.41 0.9825 -29.07 0.6525 -29.75 0.3125 C-20.77118179 -7.41926013 -9.67700356 -5.93816128 0 0 Z " fill="#D8D8D8" transform="translate(1145.75,91.6875)"/>
<path d="M0 0 C0.33 0 0.66 0 1 0 C1.0915045 36.36659892 1.16201275 72.7331777 1.20426132 109.09986798 C1.2092643 113.39079759 1.21444157 117.68172698 1.21972656 121.97265625 C1.2207758 122.82692283 1.22182505 123.68118942 1.22290608 124.56134287 C1.24032344 138.40350895 1.27186843 152.24560877 1.30861118 166.0877355 C1.34598363 180.28522648 1.36822801 194.48268269 1.37635398 208.68022084 C1.38184945 217.44477229 1.39922211 226.20913642 1.43166587 234.97363022 C1.45276817 240.97929267 1.4592098 246.98485792 1.45400551 252.99055478 C1.451437 256.45843522 1.45544441 259.92598776 1.4768219 263.39381027 C1.49661377 267.14991064 1.4919778 270.90519821 1.48101807 274.66131592 C1.49266943 275.76247576 1.5043208 276.86363561 1.51632524 277.99816394 C1.50437894 279.50448693 1.50437894 279.50448693 1.49219131 281.04124069 C1.4937102 281.90852193 1.49522908 282.77580316 1.49679399 283.66936564 C0.839858 286.75128214 -0.6511965 287.98416445 -3 290 C-2.85885572 289.41539965 -2.71771144 288.83079931 -2.57229006 288.2284838 C-1.06658423 281.47459113 -0.70893031 275.07128093 -0.7215271 268.16757202 C-0.7157347 267.01563311 -0.7099423 265.8636942 -0.70397437 264.67684805 C-0.68704461 260.83841023 -0.68410388 257.00009316 -0.68115234 253.16162109 C-0.67294512 250.40155246 -0.66176649 247.64149771 -0.65071106 244.88143921 C-0.62850121 238.95024496 -0.61345032 233.01906779 -0.60334396 227.08784103 C-0.58872163 218.51242433 -0.56317496 209.93706713 -0.53501268 201.36168547 C-0.48960909 187.44670585 -0.45296777 173.53171763 -0.421875 159.61669922 C-0.39166306 146.10431408 -0.35730068 132.59194994 -0.31738281 119.07958984 C-0.31492126 118.24585832 -0.31245972 117.41212679 -0.30992357 116.55313067 C-0.29754846 112.37029686 -0.28509202 108.1874633 -0.27259517 104.00462985 C-0.16912375 69.33644875 -0.07988879 34.66824316 0 0 Z " fill="#FAEFFE" transform="translate(332,32)"/>
<path d="M0 0 C2.30001541 2.61365388 3.02796894 4.13518322 3.75 7.625 C4.1625 8.73875 4.575 9.8525 5 11 C8.41334218 12.64236643 8.41334218 12.64236643 12 13 C12.66 12.67 13.32 12.34 14 12 C14.33 14.31 14.66 16.62 15 19 C15.99 19 16.98 19 18 19 C18.33 20.98 18.66 22.96 19 25 C20.32 25.33 21.64 25.66 23 26 C23 26.99 23 27.98 23 29 C23.598125 28.67 24.19625 28.34 24.8125 28 C28.9266036 26.11926692 31.94201474 27.5571608 36 29 C36.495 31.97 36.495 31.97 37 35 C38.32 35 39.64 35 41 35 C41 35.99 41 36.98 41 38 C38.03 37.67 35.06 37.34 32 37 C32 36.34 32 35.68 32 35 C30.948125 34.7525 29.89625 34.505 28.8125 34.25 C25.1836655 33.21740482 22.73516712 31.65228327 20 29 C20 28.34 20 27.68 20 27 C17.35283557 25.37097574 16.11081205 24.99321559 12.9375 25.1875 C11.4834375 25.0946875 11.4834375 25.0946875 10 25 C8.11400657 22.61107499 7 21.08148442 7 18 C6.38769531 17.79117188 5.77539062 17.58234375 5.14453125 17.3671875 C2.12947781 15.44502228 1.75360412 13.49207789 0.6875 10.125 C0.34074219 9.07570312 -0.00601563 8.02640625 -0.36328125 6.9453125 C-0.98057045 4.08987656 -1.00742571 2.69080156 0 0 Z " fill="#C8BFC2" transform="translate(190,214)"/>
<path d="M0 0 C0.33 0 0.66 0 1 0 C1.03053604 9.89582197 1.05095322 19.79163938 1.0625 29.6875 C1.06335602 30.41597137 1.06421204 31.14444275 1.06509399 31.89498901 C1.08903347 54.94359365 0.88811153 77.96578819 0 101 C-0.33 101 -0.66 101 -1 101 C-1.33 81.2 -1.66 61.4 -2 41 C-2.33 41 -2.66 41 -3 41 C-3.02478935 36.39184965 -3.0429023 31.78373847 -3.05493164 27.17553711 C-3.05994856 25.60912398 -3.06676362 24.0427155 -3.07543945 22.47631836 C-3.08762094 20.21987761 -3.09325481 17.96349898 -3.09765625 15.70703125 C-3.10281754 15.01100296 -3.10797882 14.31497467 -3.11329651 13.59785461 C-3.11371546 9.93529848 -2.87148095 6.56131142 -2 3 C-1.34 3 -0.68 3 0 3 C0 2.01 0 1.02 0 0 Z " fill="#C4C5E3" transform="translate(134,86)"/>
<path d="M0 0 C0.99 0 1.98 0 3 0 C3.84069415 1.60032137 4.67231505 3.20541171 5.5 4.8125 C5.9640625 5.70582031 6.428125 6.59914063 6.90625 7.51953125 C8 10 8 10 8 13 C10.97 13 13.94 13 17 13 C13.3606538 17.19924561 10.16880812 18.54654194 4.70703125 19.328125 C-2.31453395 19.80711549 -6.73760833 17.58870385 -12 13 C-12 12.67 -12 12.34 -12 12 C-8.04 12 -4.08 12 0 12 C0 8.04 0 4.08 0 0 Z " fill="#EDEDED" transform="translate(1128,110)"/>
<path d="M0 0 C5.73816415 2.93283946 10.37441828 6.67928889 15.25390625 10.87890625 C18.04436941 13.03427111 20.80339797 14.5307835 24 16 C24 16.66 24 17.32 24 18 C25.98 18.33 27.96 18.66 30 19 C30 19.66 30 20.32 30 21 C29.21625 20.814375 28.4325 20.62875 27.625 20.4375 C25.02910225 19.74037734 25.02910225 19.74037734 23 21 C23 20.34 23 19.68 23 19 C22.443125 19.37125 21.88625 19.7425 21.3125 20.125 C19 21 19 21 16.6640625 20.3125 C8.8321184 16.45394689 2.79006838 9.14615893 -2 2 C-1.34 1.34 -0.68 0.68 0 0 Z " fill="#B9B5B3" transform="translate(110,237)"/>
<path d="M0 0 C0.33 0 0.66 0 1 0 C1 2.97 1 5.94 1 9 C-9.10243682 14.13402527 -9.10243682 14.13402527 -14.23046875 14.09765625 C-15.03291016 14.09443359 -15.83535156 14.09121094 -16.66210938 14.08789062 C-17.91217773 14.07532227 -17.91217773 14.07532227 -19.1875 14.0625 C-20.4549707 14.05573242 -20.4549707 14.05573242 -21.74804688 14.04882812 C-23.83206155 14.03705403 -25.91603977 14.0191189 -28 14 C-28.33 13.34 -28.66 12.68 -29 12 C-32.03964086 10.93455888 -35.11651938 10.07421739 -38.21484375 9.1953125 C-41.41370025 7.82245123 -41.69090899 7.06916075 -43 4 C-46.05908413 3.18415432 -46.05908413 3.18415432 -49 3 C-48.67 2.34 -48.34 1.68 -48 1 C-46.22604492 1.42466497 -44.45589369 1.8652409 -42.6875 2.3125 C-41.70136719 2.55613281 -40.71523437 2.79976562 -39.69921875 3.05078125 C-36.89249484 4.03780572 -36.03814766 4.96185234 -34 7 C-31.50556226 7.78798055 -31.50556226 7.78798055 -28.8125 8.1875 C-27.91144531 8.34605469 -27.01039063 8.50460937 -26.08203125 8.66796875 C-25.05142578 8.83232422 -25.05142578 8.83232422 -24 9 C-24 9.66 -24 10.32 -24 11 C-22.27014758 10.88487847 -20.54111249 10.75744323 -18.8125 10.625 C-17.84957031 10.55539062 -16.88664062 10.48578125 -15.89453125 10.4140625 C-12.97706716 9.99671946 -10.70462419 9.13301824 -8 8 C-5.1875 7.875 -5.1875 7.875 -3 8 C-2.67 7.01 -2.34 6.02 -2 5 C-1.34 5 -0.68 5 0 5 C0 3.35 0 1.7 0 0 Z " fill="#CAC9CA" transform="translate(183,252)"/>
<path d="M0 0 C2.43770303 3.65655454 2.24795193 5.39347685 2.24291992 9.75048828 C2.24481827 10.43207001 2.24671661 11.11365173 2.24867249 11.81588745 C2.25237566 14.06747967 2.2416846 16.31874899 2.23046875 18.5703125 C2.2292768 20.13304608 2.22882382 21.69578039 2.2290802 23.2585144 C2.22751624 26.53192638 2.21923185 29.80522885 2.20581055 33.07861328 C2.18879272 37.28334045 2.18499705 41.48794758 2.18575573 45.69270515 C2.18548443 48.91821447 2.18001012 52.14369731 2.17275429 55.36919785 C2.16956337 56.92021357 2.16759923 58.4712323 2.16686058 60.02225113 C2.16470306 62.1843202 2.15597257 64.34625941 2.14526367 66.50830078 C2.14145187 67.74057404 2.13764008 68.97284729 2.13371277 70.24246216 C2 73 2 73 1 74 C0.83996512 76.66426685 0.74057111 79.30560428 0.68359375 81.97265625 C0.66281265 82.77029892 0.64203156 83.56794159 0.62062073 84.38975525 C0.55503842 86.94724611 0.49620033 89.5048428 0.4375 92.0625 C0.39432301 93.79232882 0.35070899 95.52214679 0.30664062 97.25195312 C0.19934828 101.5011926 0.09810574 105.7505389 0 110 C-0.33 110 -0.66 110 -1 110 C-1.13342492 83.03584935 -0.9442654 56.08510585 -0.5 29.125 C-0.48804218 28.39907654 -0.47608437 27.67315308 -0.46376419 26.92523193 C-0.31535347 17.95004614 -0.16070802 8.97497451 0 0 Z " fill="#7258B3" transform="translate(135,86)"/>
<path d="M0 0 C0.33 0 0.66 0 1 0 C1 2.97 1 5.94 1 9 C0.34 9 -0.32 9 -1 9 C-1.33 9.66 -1.66 10.32 -2 11 C-11.63834002 13.57367861 -21.3804878 13.33258713 -31 11 C-31 10.34 -31 9.68 -31 9 C-31.63808594 8.95101563 -32.27617187 8.90203125 -32.93359375 8.8515625 C-33.75988281 8.77679688 -34.58617187 8.70203125 -35.4375 8.625 C-36.26121094 8.55539062 -37.08492187 8.48578125 -37.93359375 8.4140625 C-38.61550781 8.27742188 -39.29742187 8.14078125 -40 8 C-40.33 7.34 -40.66 6.68 -41 6 C-34.11539129 5.72026421 -27.66861789 6.38520364 -20.8828125 7.5625 C-16.88531699 8.16916599 -13.36452747 8.00480013 -9.4375 7.1875 C-8.67308594 7.03667969 -7.90867187 6.88585937 -7.12109375 6.73046875 C-4.72308996 5.90463688 -3.71690275 4.81643335 -2 3 C-1.34 3 -0.68 3 0 3 C0 2.01 0 1.02 0 0 Z " fill="#D2CFCF" transform="translate(271,248)"/>
<path d="M0 0 C0.66 0 1.32 0 2 0 C2 22.44 2 44.88 2 68 C-1.99054412 64.00945588 -1.02124005 56.80574624 -1.0234375 51.39453125 C-1.01713414 48.91367338 -1.00089159 46.43395794 -0.96337891 43.95336914 C-0.89634147 37.82070815 -1.04272915 31.87181255 -3 26 C-2.67 25.67 -2.34 25.34 -2 25 C-1.95907063 22.66702567 -1.95758277 20.33294775 -2 18 C-1.34 18 -0.68 18 0 18 C0 12.06 0 6.12 0 0 Z " fill="#D3D9E1" transform="translate(219,128)"/>
<path d="M0 0 C2.04614258 1.74902344 2.04614258 1.74902344 4 4 C3.9597168 5.94628906 3.9597168 5.94628906 3.26171875 8.015625 C1.70139759 13.6314014 1.74143324 18.95244885 1.8125 24.75 C1.8134668 26.27173828 1.8134668 26.27173828 1.81445312 27.82421875 C1.82385494 33.32742104 1.82385494 33.32742104 2.57299805 38.76269531 C2.71390869 39.50100586 2.85481934 40.23931641 3 41 C2.505 41.495 2.505 41.495 2 42 C1.89886891 44.71864171 1.86136213 47.40651709 1.875 50.125 C1.87113281 50.87265625 1.86726562 51.6203125 1.86328125 52.390625 C1.8695832 56.00794659 2.04105971 59.22467504 2.6953125 62.8046875 C3 66 3 66 1.5625 68.4375 C1.046875 68.953125 0.53125 69.46875 0 70 C-1.95051 46.69837161 -0.71330795 23.33617324 0 0 Z " fill="#EFD9E6" transform="translate(188,84)"/>
<path d="M0 0 C2.57005181 2.57005181 2.57173288 4.25139178 3.125 7.8125 C3.29257813 8.85019531 3.46015625 9.88789063 3.6328125 10.95703125 C3.96131681 13.67942337 4.07084083 16.26250781 4 19 C4.66 19 5.32 19 6 19 C6.33 18.01 6.66 17.02 7 16 C7.74926071 19.66305234 8.2380014 22.42355152 7 26 C7.61875 26.04125 8.2375 26.0825 8.875 26.125 C11 27 11 27 12.25 29.9375 C13 33 13 33 13 35 C12.34 35 11.68 35 11 35 C11 34.34 11 33.68 11 33 C10.38125 32.690625 9.7625 32.38125 9.125 32.0625 C7.75 31.375 6.375 30.6875 5 30 C4.67 29.01 4.34 28.02 4 27 C3.67257813 26.36964844 3.34515625 25.73929688 3.0078125 25.08984375 C-0.73030566 17.33831966 -0.23655349 8.38450698 0 0 Z " fill="#E3D8D6" transform="translate(99,198)"/>
<path d="M0 0 C0.33 0 0.66 0 1 0 C1.36866745 6.5131249 1.36866745 6.5131249 -0.23046875 8.625 C-6.61061947 13.58264471 -15.32079341 13.39417981 -23 13 C-23 12.34 -23 11.68 -23 11 C-23.68707031 10.97421875 -24.37414062 10.9484375 -25.08203125 10.921875 C-25.98308594 10.86515625 -26.88414062 10.8084375 -27.8125 10.75 C-29.15248047 10.68039062 -29.15248047 10.68039062 -30.51953125 10.609375 C-33 10 -33 10 -34.82421875 7.953125 C-35.21222656 7.30859375 -35.60023438 6.6640625 -36 6 C-23.92883728 6.61307131 -23.92883728 6.61307131 -20 10 C-20 10.66 -20 11.32 -20 12 C-18.35 12 -16.7 12 -15 12 C-15 11.34 -15 10.68 -15 10 C-14.00097656 9.61328125 -13.00195312 9.2265625 -11.97265625 8.828125 C-10.66894589 8.30288917 -9.36557785 7.7768031 -8.0625 7.25 C-7.40314453 6.99734375 -6.74378906 6.7446875 -6.06445312 6.484375 C-2.25289617 5.03020135 -2.25289617 5.03020135 -0.05859375 1.796875 C-0.03925781 1.20390625 -0.01992187 0.6109375 0 0 Z " fill="#DEDEE3" transform="translate(182,250)"/>
<path d="M0 0 C0.66 0 1.32 0 2 0 C0.40333982 5.72136565 -1.67163182 9.35310543 -6.5625 12.8125 C-12.6813083 14.92627014 -19.17151651 15.06779783 -25.1875 12.5 C-26.115625 12.005 -27.04375 11.51 -28 11 C-24.52487282 9.84162427 -22.86329714 10.22734057 -19.3125 10.9375 C-17.82169922 11.22947266 -17.82169922 11.22947266 -16.30078125 11.52734375 C-15.54152344 11.68332031 -14.78226563 11.83929688 -14 12 C-14.33 11.01 -14.66 10.02 -15 9 C-13.04350603 8.16235732 -11.08474444 7.33000941 -9.125 6.5 C-7.48917969 5.80390625 -7.48917969 5.80390625 -5.8203125 5.09375 C-3 4 -3 4 -1 4 C-0.67 2.68 -0.34 1.36 0 0 Z " fill="#A79DAC" transform="translate(270,257)"/>
<path d="M0 0 C2.97 0.495 2.97 0.495 6 1 C6 1.66 6 2.32 6 3 C8.85369619 3.22346404 11.70688498 3.42913552 14.5625 3.625 C15.76229492 3.72167969 15.76229492 3.72167969 16.98632812 3.8203125 C22.13431945 4.15650785 26.03232831 3.60881333 31 2 C32.32 2 33.64 2 35 2 C35 2.99 35 3.98 35 5 C27.07726754 7.96337134 21.08986838 10.05651042 13 7 C11.84757813 6.59587891 11.84757813 6.59587891 10.671875 6.18359375 C8.76688504 5.49420053 6.8809961 4.75239844 5 4 C5 3.34 5 2.68 5 2 C3.35 1.67 1.7 1.34 0 1 C0 0.67 0 0.34 0 0 Z " fill="#C2BFBD" transform="translate(234,256)"/>
<path d="M0 0 C2.41407936 3.62111904 2.25754726 5.33707525 2.265625 9.64453125 C2.26820313 10.96130859 2.27078125 12.27808594 2.2734375 13.63476562 C2.26924805 14.32094971 2.26505859 15.00713379 2.26074219 15.71411133 C2.25009095 17.79473406 2.26061715 19.87448313 2.2734375 21.95507812 C2.27211485 23.28906439 2.26955027 24.62305011 2.265625 25.95703125 C2.26336914 27.16335205 2.26111328 28.36967285 2.25878906 29.61254883 C1.99630601 33.0483529 1.23138827 35.79466088 0 39 C-0.33 39 -0.66 39 -1 39 C-0.98839844 38.15695313 -0.97679687 37.31390625 -0.96484375 36.4453125 C-0.95582031 35.34960938 -0.94679687 34.25390625 -0.9375 33.125 C-0.92589844 32.03445312 -0.91429687 30.94390625 -0.90234375 29.8203125 C-0.80255697 27.04822454 -0.80255697 27.04822454 -2 25 C-1.74922443 22.43459479 -1.44070666 19.9214349 -1.0625 17.375 C-0.96259766 16.66859375 -0.86269531 15.9621875 -0.75976562 15.234375 C-0.51208041 13.48878393 -0.25676129 11.74427916 0 10 C-0.33 10 -0.66 10 -1 10 C-1.042721 8.33388095 -1.04063832 6.66617115 -1 5 C-0.67 4.67 -0.34 4.34 0 4 C0 2.68 0 1.36 0 0 Z " fill="#D5D8E9" transform="translate(221,79)"/>
<path d="M0 0 C2.97 0.99 5.94 1.98 9 3 C9.33 4.98 9.66 6.96 10 9 C11.32 9 12.64 9 14 9 C14 9.99 14 10.98 14 12 C11.03 11.67 8.06 11.34 5 11 C5 10.34 5 9.68 5 9 C4.34 9 3.68 9 3 9 C3 8.01 3 7.02 3 6 C1.35 5.67 -0.3 5.34 -2 5 C-1.34 3.35 -0.68 1.7 0 0 Z " fill="#D2CFCF" transform="translate(217,240)"/>
<path d="M0 0 C1.25103516 0.07347656 1.25103516 0.07347656 2.52734375 0.1484375 C3.36394531 0.18195313 4.20054688 0.21546875 5.0625 0.25 C7.27796876 0.50216718 9.3213983 0.91951061 11.46484375 1.5234375 C10.80484375 2.8434375 10.14484375 4.1634375 9.46484375 5.5234375 C3.85484375 5.5234375 -1.75515625 5.5234375 -7.53515625 5.5234375 C-2.53515625 0.5234375 -2.53515625 0.5234375 0 0 Z " fill="#F1F1F1" transform="translate(1127.53515625,86.4765625)"/>
<path d="M0 0 C1.11375 0.185625 2.2275 0.37125 3.375 0.5625 C6.82568861 1.31680657 6.82568861 1.31680657 9 0 C9.33 2.31 9.66 4.62 10 7 C10.99 7 11.98 7 13 7 C13 8.32 13 9.64 13 11 C7.99821161 9.72047274 5.35601152 7.91534677 2 4 C0.6875 1.6875 0.6875 1.6875 0 0 Z " fill="#D7D4CF" transform="translate(195,226)"/>
<path d="M0 0 C0.46148437 0.35191406 0.92296875 0.70382813 1.3984375 1.06640625 C3.58908762 2.72454656 5.79215301 4.36482458 8 6 C9.13888672 6.84691406 9.13888672 6.84691406 10.30078125 7.7109375 C16.89101171 12.47833826 23.78278803 16.27827157 31 20 C27.98968256 20.93423645 27.13349732 21.04449911 24 20 C24 19.34 24 18.68 24 18 C23.278125 17.71125 22.55625 17.4225 21.8125 17.125 C19.20833333 16.08333333 16.60416667 15.04166667 14 14 C14 13.34 14 12.68 14 12 C12.9171875 11.62875 12.9171875 11.62875 11.8125 11.25 C9 10 9 10 6.5 7.875 C3.67927348 5.75945511 2.43380512 5.60756513 -1 6 C-0.67 4.02 -0.34 2.04 0 0 Z " fill="#6D4AAD" transform="translate(115,248)"/>
<path d="M0 0 C0.33 0 0.66 0 1 0 C1.19386492 2.64551056 1.38038267 5.29117783 1.5625 7.9375 C1.61857422 8.69224609 1.67464844 9.44699219 1.73242188 10.22460938 C1.86176157 12.14745958 1.93516912 14.07389548 2 16 C1.67 16.33 1.34 16.66 1 17 C0.83996512 19.66426685 0.74057111 22.30560428 0.68359375 24.97265625 C0.66281265 25.77029892 0.64203156 26.56794159 0.62062073 27.38975525 C0.55503842 29.94724611 0.49620033 32.5048428 0.4375 35.0625 C0.39432301 36.79232882 0.35070899 38.52214679 0.30664062 40.25195312 C0.19934828 44.5011926 0.09810574 48.7505389 0 53 C-0.33 53 -0.66 53 -1 53 C-1.02543538 46.5770757 -1.04290272 40.15416447 -1.05493164 33.73120117 C-1.05994843 31.547928 -1.06676337 29.36465818 -1.07543945 27.18139648 C-1.08762147 24.03628717 -1.09325497 20.89122243 -1.09765625 17.74609375 C-1.10281754 16.7760289 -1.10797882 15.80596405 -1.11329651 14.8065033 C-1.11371077 9.75825644 -0.8687892 4.97524613 0 0 Z " fill="#684AAF" transform="translate(135,143)"/>
<path d="M0 0 C0.99 0 1.98 0 3 0 C3.33 0.66 3.66 1.32 4 2 C6.9737344 3.09036928 7.88407501 3.03864166 11 2 C11 2.66 11 3.32 11 4 C11.66 4 12.32 4 13 4 C13 4.66 13 5.32 13 6 C12.01 6.495 12.01 6.495 11 7 C13.475 7.99 13.475 7.99 16 9 C16 9.66 16 10.32 16 11 C17.32 11 18.64 11 20 11 C20 11.99 20 12.98 20 14 C16.14668811 12.59434539 12.87863435 10.78799023 9.4375 8.5625 C8.04337891 7.66724609 8.04337891 7.66724609 6.62109375 6.75390625 C1.84214206 3.55606823 1.84214206 3.55606823 0 2 C0 1.34 0 0.68 0 0 Z " fill="#B1A5B4" transform="translate(209,248)"/>
<path d="M0 0 C4.91458865 2.45729433 8.88144489 5.38370771 13 9 C10.50907189 10.24546405 9.58919267 9.7767578 7 9 C6.67 9.99 6.34 10.98 6 12 C4.84852339 10.73427767 3.70400686 9.46222094 2.5625 8.1875 C1.92441406 7.47980469 1.28632812 6.77210938 0.62890625 6.04296875 C-1 4 -1 4 -2 1 C-1.34 0.67 -0.68 0.34 0 0 Z " fill="#BDB4BB" transform="translate(110,237)"/>
<path d="M0 0 C0.66 0.33 1.32 0.66 2 1 C2.40639392 3.47448744 2.70312486 5.88328163 2.9375 8.375 C3.66438757 15.14309723 4.93296285 21.49572309 7 28 C6.01 28 5.02 28 4 28 C3.67 26.35 3.34 24.7 3 23 C2.01 22.67 1.02 22.34 0 22 C0.01740234 20.46279297 0.01740234 20.46279297 0.03515625 18.89453125 C0.04454022 17.533856 0.05363977 16.17317876 0.0625 14.8125 C0.07087891 14.13896484 0.07925781 13.46542969 0.08789062 12.77148438 C0.10615867 9.02653425 -0.25805101 5.65627117 -1 2 C-0.67 1.34 -0.34 0.68 0 0 Z " fill="#D9E3ED" transform="translate(131,191)"/>
<path d="M0 0 C1.32 0 2.64 0 4 0 C3.649375 0.86625 3.29875 1.7325 2.9375 2.625 C1.08002602 8.99535092 1.87768201 16.94718505 3.6328125 23.28515625 C4 25 4 25 2.5625 27.25 C2.046875 27.8275 1.53125 28.405 1 29 C0.1589522 25.3535194 -0.11764968 22.00049093 -0.09765625 18.26171875 C-0.09443359 17.19501953 -0.09121094 16.12832031 -0.08789062 15.02929688 C-0.07951172 13.92650391 -0.07113281 12.82371094 -0.0625 11.6875 C-0.05798828 10.56537109 -0.05347656 9.44324219 -0.04882812 8.28710938 C-0.03707313 5.5246849 -0.02064077 2.76237002 0 0 Z " fill="#FAEAE7" transform="translate(100,91)"/>
<path d="M0 0 C0.66 0.33 1.32 0.66 2 1 C1.67 1.99 1.34 2.98 1 4 C1.928125 4.4640625 1.928125 4.4640625 2.875 4.9375 C4.25 5.625 5.625 6.3125 7 7 C7 7.66 7 8.32 7 9 C7.66 9 8.32 9 9 9 C9.99 10.485 9.99 10.485 11 12 C10.67 12.99 10.34 13.98 10 15 C6.84965145 14.42720935 4.65106175 13.92081631 2.74609375 11.2265625 C1.07850984 7.91600846 -0.3261454 4.66259794 -1 1 C-0.67 0.67 -0.34 0.34 0 0 Z " fill="#CEC9C5" transform="translate(103,224)"/>
<path d="M0 0 C2.27649812 4.4012297 3.12094458 7.71971064 3.0625 12.6875 C3.05347656 13.68136719 3.04445312 14.67523438 3.03515625 15.69921875 C3.02355469 16.45847656 3.01195312 17.21773437 3 18 C3.66 18.33 4.32 18.66 5 19 C5.59355614 21.64860427 5.74209269 24.29197322 6 27 C4.68 26.67 3.36 26.34 2 26 C0.20637535 17.25607982 -0.23737365 8.91469911 0 0 Z " fill="#E3CDE3" transform="translate(187,190)"/>
<path d="M0 0 C1.32 1.32 2.64 2.64 4 4 C3.953125 5.90234375 3.953125 5.90234375 3.25 7.9375 C1.82252831 12.99625932 1.90405683 17.66292784 1.99609375 22.890625 C2.00086462 26.6882407 1.5877066 30.2533704 1 34 C0.67 34 0.34 34 0 34 C0 22.78 0 11.56 0 0 Z " fill="#F9E5E9" transform="translate(188,84)"/>
<path d="M0 0 C1.22976562 0.10828125 1.22976562 0.10828125 2.484375 0.21875 C3.56203125 0.3115625 4.6396875 0.404375 5.75 0.5 C7.35101563 0.63921875 7.35101563 0.63921875 8.984375 0.78125 C11.3179218 0.95052283 13.66032182 1 16 1 C18.33333333 1 20.66666667 1 23 1 C23 1.66 23 2.32 23 3 C14.72911015 4.74123997 7.55660108 4.94257448 0 1 C0 0.67 0 0.34 0 0 Z " fill="#E0E0DF" transform="translate(241,255)"/>
<path d="M0 0 C2 0 2 0 4.5 2.4375 C5.325 3.283125 6.15 4.12875 7 5 C7.66 5.33 8.32 5.66 9 6 C9.67375452 8.088639 10 9.80363095 10 12 C5.5670764 10.12453232 0.9577031 7.29848744 -0.9375 2.75 C-0.958125 2.1725 -0.97875 1.595 -1 1 C-0.67 0.67 -0.34 0.34 0 0 Z " fill="#B5AEAA" transform="translate(117,245)"/>
<path d="M0 0 C0.33 0 0.66 0 1 0 C1 2.97 1 5.94 1 9 C0.34 9 -0.32 9 -1 9 C-1.33 9.66 -1.66 10.32 -2 11 C-4.64860427 11.59355614 -7.29197322 11.74209269 -10 12 C-9.67 11.34 -9.34 10.68 -9 10 C-8.34 10 -7.68 10 -7 10 C-7 9.01 -7 8.02 -7 7 C-6.360625 6.71125 -5.72125 6.4225 -5.0625 6.125 C-2.84793921 5.17176549 -2.84793921 5.17176549 -2 3 C-1.34 3 -0.68 3 0 3 C0 2.01 0 1.02 0 0 Z " fill="#C7C9D3" transform="translate(271,248)"/>
<path d="M0 0 C0.33 0 0.66 0 1 0 C1 9.9 1 19.8 1 30 C0.67 30 0.34 30 0 30 C-0.06058594 28.85660156 -0.12117187 27.71320313 -0.18359375 26.53515625 C-0.26798428 25.04425695 -0.35263302 23.55337225 -0.4375 22.0625 C-0.47681641 21.30775391 -0.51613281 20.55300781 -0.55664062 19.77539062 C-0.44038024 16.08055813 -0.44038024 16.08055813 -2 13 C-1.72460254 10.65912158 -1.3813074 8.32597511 -1 6 C-0.814375 4.865625 -0.62875 3.73125 -0.4375 2.5625 C-0.293125 1.716875 -0.14875 0.87125 0 0 Z " fill="#CCD2DD" transform="translate(220,152)"/>
<path d="M0 0 C1.22886899 3.68660697 1.14560987 7.10062975 1.125 10.9375 C1.12886719 11.65357422 1.13273437 12.36964844 1.13671875 13.10742188 C1.13030321 16.56860611 0.97149691 19.67686375 0 23 C0 23.99 0 24.98 0 26 C-0.31088368 27.67099977 -0.64080332 29.33871537 -1 31 C-1.33 31 -1.66 31 -2 31 C-2.11168048 23.75317797 -1.99567871 16.5458446 -1.5625 9.3125 C-1.52326416 8.61769531 -1.48402832 7.92289063 -1.44360352 7.20703125 C-1.12309249 2.24618498 -1.12309249 2.24618498 0 0 Z " fill="#FEECEE" transform="translate(101,126)"/>
<path d="M0 0 C6.7745349 0.93011032 12.76842152 2.35825635 18 7 C19.21875 9.1640625 19.21875 9.1640625 20 11 C18.02 10.34 16.04 9.68 14 9 C14.33 8.01 14.66 7.02 15 6 C13.9171875 5.814375 13.9171875 5.814375 12.8125 5.625 C10 5 10 5 7.5625 4 C4.72050091 2.89092718 2.01406808 2.42056764 -1 2 C-0.67 1.34 -0.34 0.68 0 0 Z " fill="#7050B1" transform="translate(302,11)"/>
<path d="M0 0 C0.66 0 1.32 0 2 0 C5 4.38461538 5 4.38461538 5 7 C6.32 6.67 7.64 6.34 9 6 C9 6.99 9 7.98 9 9 C10.32 9.66 11.64 10.32 13 11 C12.34 12.32 11.68 13.64 11 15 C5.91466527 10.4289126 2.75103348 6.27235634 0 0 Z " fill="#BBACC1" transform="translate(195,232)"/>
<path d="M0 0 C2.97 0.99 5.94 1.98 9 3 C9.33 4.98 9.66 6.96 10 9 C8.68 9 7.36 9 6 9 C6 8.01 6 7.02 6 6 C5.34 6 4.68 6 4 6 C4 5.34 4 4.68 4 4 C3.01 4 2.02 4 1 4 C0.67 2.68 0.34 1.36 0 0 Z " fill="#E1E0DC" transform="translate(217,240)"/>
<path d="M0 0 C2.64 0 5.28 0 8 0 C8 1.65 8 3.3 8 5 C5.36 5 2.72 5 0 5 C0 3.35 0 1.7 0 0 Z " fill="#EDEDED" transform="translate(1128,99)"/>
<path d="M0 0 C0.33 0 0.66 0 1 0 C1.05421223 3.04190863 1.09377548 6.08283999 1.125 9.125 C1.15013672 10.40890625 1.15013672 10.40890625 1.17578125 11.71875 C1.21306681 16.56587293 0.89580643 20.44707905 -1 25 C-1.33 25 -1.66 25 -2 25 C-1.42754306 16.65674459 -0.79850617 8.32485153 0 0 Z " fill="#CBD1E0" transform="translate(222,93)"/>
<path d="M0 0 C0.33 0 0.66 0 1 0 C1 1.65 1 3.3 1 5 C0.34 5 -0.32 5 -1 5 C-1.33 5.99 -1.66 6.98 -2 8 C-5.55610043 10.56039231 -9.76501798 10.5765018 -14 11 C-14 10.34 -14 9.68 -14 9 C-11.36 8.67 -8.72 8.34 -6 8 C-6 7.34 -6 6.68 -6 6 C-4.7934375 5.2884375 -4.7934375 5.2884375 -3.5625 4.5625 C-0.7081924 3.20016328 -0.7081924 3.20016328 0 0 Z " fill="#E8EAF0" transform="translate(270,246)"/>
<path d="M0 0 C0.66 0 1.32 0 2 0 C2.11021484 0.94359375 2.11021484 0.94359375 2.22265625 1.90625 C2.47917969 2.5971875 2.73570312 3.288125 3 4 C5.02238062 4.99302613 5.02238062 4.99302613 7.4375 5.5 C11.72073471 6.54502677 11.72073471 6.54502677 13.28515625 9.09375 C13.52105469 9.7228125 13.75695312 10.351875 14 11 C10.04093183 9.56691865 6.71281819 7.66858051 3.1875 5.375 C2.21167969 4.74335938 1.23585937 4.11171875 0.23046875 3.4609375 C-0.50558594 2.97882813 -1.24164063 2.49671875 -2 2 C-1.34 1.34 -0.68 0.68 0 0 Z " fill="#7351B2" transform="translate(233,220)"/>
<path d="M0 0 C3.16322287 3.16322287 2.96537512 6.31904408 3.1875 10.6875 C3 14 3 14 1 16 C-0.14077657 12.57767028 -0.09815117 9.91326783 -0.0625 6.3125 C-0.05347656 5.13300781 -0.04445313 3.95351562 -0.03515625 2.73828125 C-0.02355469 1.83464844 -0.01195313 0.93101562 0 0 Z " fill="#ECD8E5" transform="translate(99,198)"/>
<path d="M0 0 C3.3 0.33 6.6 0.66 10 1 C10 1.66 10 2.32 10 3 C10.66 3.66 11.32 4.32 12 5 C10.5613506 4.93967927 9.12388098 4.85079867 7.6875 4.75 C6.88699219 4.70359375 6.08648437 4.6571875 5.26171875 4.609375 C3 4 3 4 0 0 Z " fill="#DBD9D6" transform="translate(146,256)"/>
<path d="M0 0 C4.54397394 -0.252443 4.54397394 -0.252443 6.75 0.96875 C9.76066694 2.34863901 12.454733 2.42728398 15.75 2.625 C16.92046875 2.69976562 18.0909375 2.77453125 19.296875 2.8515625 C20.63492188 2.92503906 20.63492188 2.92503906 22 3 C22 3.33 22 3.66 22 4 C16.06 4 10.12 4 4 4 C3.67 3.34 3.34 2.68 3 2 C2.01 1.34 1.02 0.68 0 0 Z " fill="#C3C1BE" transform="translate(151,262)"/>
<path d="M0 0 C3.33773709 3.64116773 3.97864902 7.28607242 5 12 C4.01 12.33 3.02 12.66 2 13 C1.47044766 11.21089097 0.9516063 9.41860852 0.4375 7.625 C0.14746094 6.62726563 -0.14257812 5.62953125 -0.44140625 4.6015625 C-1 2 -1 2 0 0 Z " fill="#D5C3CE" transform="translate(190,214)"/>
<path d="M0 0 C3.96 1.32 7.92 2.64 12 4 C10.02 4.99 10.02 4.99 8 6 C7.34 6.66 6.68 7.32 6 8 C5.34 7.34 4.68 6.68 4 6 C3.29875 5.34 2.5975 4.68 1.875 4 C0 2 0 2 0 0 Z " fill="#F5ECFC" transform="translate(25,335)"/>
<path d="M0 0 C0.66 0 1.32 0 2 0 C1.88655624 2.1464753 1.75893655 4.29220592 1.625 6.4375 C1.52058594 8.22994141 1.52058594 8.22994141 1.4140625 10.05859375 C1.27742187 11.02925781 1.14078125 11.99992188 1 13 C0.01 13.495 0.01 13.495 -1 14 C-1.02685938 11.85423363 -1.04633088 9.70837355 -1.0625 7.5625 C-1.07410156 6.36753906 -1.08570313 5.17257813 -1.09765625 3.94140625 C-1 1 -1 1 0 0 Z " fill="#D3DBE0" transform="translate(131,128)"/>
<path d="M0 0 C0.66 0 1.32 0 2 0 C2.66 1.98 3.32 3.96 4 6 C2.35232753 5.71890887 0.70686855 5.42481474 -0.9375 5.125 C-1.85402344 4.96257812 -2.77054688 4.80015625 -3.71484375 4.6328125 C-4.84599609 4.31957031 -4.84599609 4.31957031 -6 4 C-6.33 3.34 -6.66 2.68 -7 2 C-4.69 2 -2.38 2 0 2 C0 1.34 0 0.68 0 0 Z " fill="#DBDAD8" transform="translate(141,250)"/>
<path d="M0 0 C1 2 1 2 0.5 4.4375 C-1.64660465 8.10461627 -4.01923131 8.76458903 -8 10 C-10.2265625 9.5703125 -10.2265625 9.5703125 -12 9 C-11.46890625 8.76925781 -10.9378125 8.53851563 -10.390625 8.30078125 C-5.79832691 6.18061443 -2.88155149 4.32232724 0 0 Z " fill="#6E4DAE" transform="translate(182,265)"/>
<path d="M0 0 C0.33 0 0.66 0 1 0 C1.33 5.28 1.66 10.56 2 16 C1.01 16.33 0.02 16.66 -1 17 C-1.10477512 11.21408489 -0.99250545 5.70690634 0 0 Z " fill="#7150B5" transform="translate(135,143)"/>
<path d="M0 0 C0.99 0 1.98 0 3 0 C1.54540242 3.39406103 -0.3654396 5.44527477 -3 8 C-4.02323436 9.31558703 -5.03126968 10.64377755 -6 12 C-5.67 9.36 -5.34 6.72 -5 4 C-3.35 3.67 -1.7 3.34 0 3 C0 2.01 0 1.02 0 0 Z " fill="#ECE0F8" transform="translate(18,17)"/>
<path d="M0 0 C-0.47202486 4.24822374 -2.96655518 6.19989709 -6 9 C-5.38983051 3.50847458 -5.38983051 3.50847458 -3.5625 1.125 C-2 0 -2 0 0 0 Z " fill="#A79EB7" transform="translate(183,262)"/>
<path d="M0 0 C2.97 0.99 5.94 1.98 9 3 C9 3.66 9 4.32 9 5 C10.32 5 11.64 5 13 5 C13 5.99 13 6.98 13 8 C8.27626146 6.37621488 4.05818166 3.89006982 0 1 C0 0.67 0 0.34 0 0 Z " fill="#AC9BBD" transform="translate(216,254)"/>
<path d="M0 0 C3.17538332 0.34021964 4.02276865 1.02466604 6.25 3.4375 C8 6 8 6 8 8 C7.34 8 6.68 8 6 8 C6 7.34 6 6.68 6 6 C5.38125 5.690625 4.7625 5.38125 4.125 5.0625 C2.75 4.375 1.375 3.6875 0 3 C0 2.01 0 1.02 0 0 Z " fill="#DAD3D0" transform="translate(104,225)"/>
<path d="M0 0 C0.33 0 0.66 0 1 0 C1.10841951 1.91541138 1.18578079 3.83259773 1.25 5.75 C1.29640625 6.81734375 1.3428125 7.8846875 1.390625 8.984375 C1 12 1 12 -3 16 C-2.01 10.72 -1.02 5.44 0 0 Z " fill="#F2E3FB" transform="translate(332,306)"/>
<path d="M0 0 C2.97 0.33 5.94 0.66 9 1 C9 1.66 9 2.32 9 3 C12.3 3 15.6 3 19 3 C19 3.33 19 3.66 19 4 C11.90370975 4.31461385 6.31715405 4.44572039 0 1 C0 0.67 0 0.34 0 0 Z " fill="#D2CFCF" transform="translate(150,260)"/>
<path d="M0 0 C0.66 0 1.32 0 2 0 C2.3125 2.3125 2.3125 2.3125 2 5 C-0.5 6.8125 -0.5 6.8125 -3 8 C-3 7.34 -3 6.68 -3 6 C-3.66 5.67 -4.32 5.34 -5 5 C-3.625 3.5 -3.625 3.5 -2 2 C-1.34 2 -0.68 2 0 2 C0 1.34 0 0.68 0 0 Z " fill="#E8EEF7" transform="translate(132,84)"/>
<path d="M0 0 C0.66 0 1.32 0 2 0 C2 1.32 2 2.64 2 4 C2.99 4 3.98 4 5 4 C5.33 5.65 5.66 7.3 6 9 C3.36 7.35 0.72 5.7 -2 4 C-1.34 2.68 -0.68 1.36 0 0 Z " fill="#EBE1F7" transform="translate(316,11)"/>
<path d="M0 0 C0.33 0 0.66 0 1 0 C1 3.63 1 7.26 1 11 C0.34 11 -0.32 11 -1 11 C-1.22174933 9.54364629 -1.42698698 8.08477044 -1.625 6.625 C-1.74101563 5.81289062 -1.85703125 5.00078125 -1.9765625 4.1640625 C-1.98429688 3.44992188 -1.99203125 2.73578125 -2 2 C-1.34 1.34 -0.68 0.68 0 0 Z M-4 4 C-2 5 -2 5 -2 5 Z " fill="#A9A9A9" transform="translate(640,232)"/>
<path d="M0 0 C0.66 0.33 1.32 0.66 2 1 C1.67 1.99 1.34 2.98 1 4 C1.99 4.33 2.98 4.66 4 5 C4.33 7.64 4.66 10.28 5 13 C1.44992282 9.0949151 0.18180084 6.02265357 -1 1 C-0.67 0.67 -0.34 0.34 0 0 Z " fill="#CCB8CF" transform="translate(103,224)"/>
<path d="M0 0 C0.556875 0.309375 1.11375 0.61875 1.6875 0.9375 C4.12540433 2.05761821 6.36224186 2.56037364 9 3 C10 6 10 6 10 8 C6.05205855 6.32971708 3.18203882 3.8204435 0 1 C0 0.67 0 0.34 0 0 Z " fill="#B1A1BC" transform="translate(117,249)"/>
<path d="M0 0 C2 2 2 2 2.125 4.625 C2.08375 5.40875 2.0425 6.1925 2 7 C2.99 7 3.98 7 5 7 C5 8.32 5 9.64 5 11 C3.68 10.67 2.36 10.34 1 10 C0.63720544 8.71073008 0.28503302 7.41846728 -0.0625 6.125 C-0.35833984 5.04605469 -0.35833984 5.04605469 -0.66015625 3.9453125 C-1 2 -1 2 0 0 Z " fill="#DEDBD8" transform="translate(203,226)"/>
<path d="M0 0 C1.670625 0.495 1.670625 0.495 3.375 1 C6.69459717 2.088643 6.69459717 2.088643 9 2 C9.66 3.65 10.32 5.3 11 7 C6.89188572 5.55007731 3.53144334 3.54592427 0 1 C0 0.67 0 0.34 0 0 Z " fill="#6F4FB2" transform="translate(145,226)"/>
<path d="M0 0 C0.66 0.33 1.32 0.66 2 1 C2.59355614 3.64860427 2.74209269 6.29197322 3 9 C1.68 8.67 0.36 8.34 -1 8 C-1.04241723 5.66705225 -1.04092937 3.33297433 -1 1 C-0.67 0.67 -0.34 0.34 0 0 Z " fill="#E6D8D7" transform="translate(190,208)"/>
<path d="M0 0 C0.33 0 0.66 0 1 0 C1.3125 2.8125 1.3125 2.8125 1 6 C-1.3125 7.9375 -1.3125 7.9375 -4 9 C-4.99 8.67 -5.98 8.34 -7 8 C-5.37660195 6.29115995 -3.70680947 4.62553283 -2 3 C-1.34 3 -0.68 3 0 3 C0 2.01 0 1.02 0 0 Z " fill="#D4D6E8" transform="translate(271,248)"/>
<path d="M0 0 C2.475 0.99 2.475 0.99 5 2 C5 2.66 5 3.32 5 4 C6.65 4.33 8.3 4.66 10 5 C10 5.66 10 6.32 10 7 C6.12697862 5.85569823 2.99736561 4.76679902 0 2 C0 1.34 0 0.68 0 0 Z " fill="#C6C3C2" transform="translate(210,241)"/>
<path d="M0 0 C0.66 0.33 1.32 0.66 2 1 C-2.95 3.97 -2.95 3.97 -8 7 C-8.33 6.01 -8.66 5.02 -9 4 C-7.54618103 3.30300448 -6.08677047 2.61766134 -4.625 1.9375 C-3.40683594 1.36322266 -3.40683594 1.36322266 -2.1640625 0.77734375 C-1.44992188 0.52082031 -0.73578125 0.26429688 0 0 Z " fill="#E7E7E8" transform="translate(176,256)"/>
<path d="M0 0 C2.3129482 2.3129482 2.49580975 3.47904875 3.125 6.625 C3.29257813 7.44226563 3.46015625 8.25953125 3.6328125 9.1015625 C3.81457031 10.04128906 3.81457031 10.04128906 4 11 C3.01 11 2.02 11 1 11 C-1.125 3.375 -1.125 3.375 0 0 Z " fill="#DCDCFB" transform="translate(134,208)"/>
<path d="M0 0 C0.99 0 1.98 0 3 0 C3 0.66 3 1.32 3 2 C3.598125 2.268125 4.19625 2.53625 4.8125 2.8125 C6.97224808 3.98493467 8.35790256 5.19369282 10 7 C6.433255 7 5.89456323 6.36308045 3.3125 4.0625 C2.68988281 3.51722656 2.06726563 2.97195313 1.42578125 2.41015625 C0.95527344 1.94480469 0.48476563 1.47945313 0 1 C0 0.67 0 0.34 0 0 Z " fill="#7D5FB8" transform="translate(16,327)"/>
<path d="M0 0 C0.66 0 1.32 0 2 0 C0.79157144 4.43090471 -0.51668565 6.98112756 -4 10 C-4 8.68 -4 7.36 -4 6 C-3.34 6 -2.68 6 -2 6 C-1.34 4.02 -0.68 2.04 0 0 Z " fill="#A99CBC" transform="translate(270,257)"/>
<path d="M0 0 C1.65 0.33 3.3 0.66 5 1 C5 1.66 5 2.32 5 3 C5.99 3.33 6.98 3.66 8 4 C7.01 4.495 7.01 4.495 6 5 C3.64018187 4.06421005 1.30368736 3.06652192 -1 2 C-0.67 1.34 -0.34 0.68 0 0 Z " fill="#6F4DB3" transform="translate(162,234)"/>
<path d="M0 0 C3.96 0 7.92 0 12 0 C12 0.33 12 0.66 12 1 C9.69 1 7.38 1 5 1 C4.67 1.99 4.34 2.98 4 4 C2.68 2.68 1.36 1.36 0 0 Z " fill="#D1D1D1" transform="translate(1116,122)"/>
<path d="M0 0 C2.17854707 3.2678206 3.49760034 6.38058265 5 10 C4.01 10.495 4.01 10.495 3 11 C0.84694043 7.14243493 -0.39253254 4.44870215 0 0 Z " fill="#E5D7F7" transform="translate(10,316)"/>
<path d="M0 0 C0.33 0 0.66 0 1 0 C1 2.97 1 5.94 1 9 C-0.65 9.66 -2.3 10.32 -4 11 C-4 10.34 -4 9.68 -4 9 C-3.34 9 -2.68 9 -2 9 C-2 8.34 -2 7.68 -2 7 C-1.34 7 -0.68 7 0 7 C0 4.69 0 2.38 0 0 Z " fill="#B7B2D2" transform="translate(183,252)"/>
<path d="M0 0 C0.99 0.66 1.98 1.32 3 2 C1.906875 1.979375 0.81375 1.95875 -0.3125 1.9375 C-3.94384191 1.81455548 -3.94384191 1.81455548 -7 3 C-7.66 2.34 -8.32 1.68 -9 1 C-5.64847025 -1.11022243 -3.76699068 -1.15907406 0 0 Z " fill="#B4B1B0" transform="translate(236,257)"/>
<path d="M0 0 C2.32472205 2.85306797 3.7508258 5.54074837 5 9 C4.01 9 3.02 9 2 9 C1.87625 8.030625 1.7525 7.06125 1.625 6.0625 C1.41875 5.051875 1.2125 4.04125 1 3 C0.34 2.67 -0.32 2.34 -1 2 C-0.67 1.34 -0.34 0.68 0 0 Z " fill="#704DAD" transform="translate(194,231)"/>
<path d="M0 0 C0.66 0.33 1.32 0.66 2 1 C2 2.98 2 4.96 2 7 C0.68 6.34 -0.64 5.68 -2 5 C-2 4.01 -2 3.02 -2 2 C-1.34 2 -0.68 2 0 2 C0 1.34 0 0.68 0 0 Z " fill="#EBEBEB" transform="translate(602,218)"/>
<path d="M0 0 C2.31 1.65 4.62 3.3 7 5 C3.86650268 6.04449911 3.01031744 5.93423645 0 5 C0 3.35 0 1.7 0 0 Z " fill="#714DAE" transform="translate(205,246)"/>
<path d="M0 0 C0.99 0 1.98 0 3 0 C4.75 2.3125 4.75 2.3125 6 5 C5.67 5.99 5.34 6.98 5 8 C0 2.25 0 2.25 0 0 Z " fill="#D2CBC6" transform="translate(195,226)"/>
<path d="M0 0 C0.66 0.33 1.32 0.66 2 1 C2 4.3 2 7.6 2 11 C0.35122815 7.70245629 -0.53158436 5.55995883 -1 2 C-0.67 1.34 -0.34 0.68 0 0 Z " fill="#D1D8E7" transform="translate(131,191)"/>
<path d="M0 0 C1.32 0 2.64 0 4 0 C4.33 2.31 4.66 4.62 5 7 C2.47411298 4.63707344 1.11179163 3.33537489 0 0 Z " fill="#6F4CB5" transform="translate(218,74)"/>
<path d="M0 0 C0.99 0.33 1.98 0.66 3 1 C1.35 2.98 -0.3 4.96 -2 7 C-2.33 5.68 -2.66 4.36 -3 3 C-2.01 3 -1.02 3 0 3 C0 2.01 0 1.02 0 0 Z " fill="#7757B7" transform="translate(323,325)"/>
<path d="M0 0 C0.66 0 1.32 0 2 0 C2.433125 1.2065625 2.433125 1.2065625 2.875 2.4375 C3.73262568 5.1326468 3.73262568 5.1326468 6 6 C5.67 6.66 5.34 7.32 5 8 C4.01 8 3.02 8 2 8 C1.34 5.36 0.68 2.72 0 0 Z " fill="#C8BEBE" transform="translate(106,230)"/>
<path d="M0 0 C2 4 2 4 2 8 C1.34 8.66 0.68 9.32 0 10 C0 6.7 0 3.4 0 0 Z " fill="#F2DCE7" transform="translate(187,190)"/>
</svg>
